<svg width="7069" height="1987" viewBox="0 0 7069 1987" fill="none" xmlns="http://www.w3.org/2000/svg">
<rect y="285" width="7069" height="1415" fill="black"/>
<path d="M3524.35 1335.74C3459.24 1335.74 3401.79 1320.28 3351.98 1289.36C3302.51 1258.11 3263.77 1214.32 3235.77 1158.01C3207.78 1101.69 3193.78 1036.26 3193.78 961.719C3193.78 886.523 3207.78 820.931 3235.77 764.941C3263.77 708.626 3302.51 664.844 3351.98 633.594C3401.79 602.344 3459.24 586.719 3524.35 586.719C3561.78 586.719 3596.94 592.253 3629.82 603.32C3663.02 614.388 3692.8 630.501 3719.17 651.66C3745.54 672.819 3767.35 698.372 3784.6 728.32C3802.18 758.268 3814.39 792.122 3821.22 829.883H3729.91C3724.38 804.167 3715.27 781.38 3702.57 761.523C3690.2 741.667 3674.9 725.065 3656.67 711.719C3638.44 698.047 3618.1 687.793 3595.64 680.957C3573.18 673.796 3549.41 670.215 3524.35 670.215C3476.5 670.215 3434.34 682.096 3397.88 705.859C3361.75 729.622 3333.43 763.314 3312.92 806.934C3292.74 850.228 3282.65 901.823 3282.65 961.719C3282.65 1021.29 3292.9 1072.88 3313.41 1116.5C3333.92 1159.8 3362.24 1193.33 3398.37 1217.09C3434.5 1240.53 3476.5 1252.25 3524.35 1252.25C3549.41 1252.25 3573.18 1248.83 3595.64 1241.99C3618.1 1234.83 3638.28 1224.58 3656.18 1211.23C3674.41 1197.56 3689.88 1180.96 3702.57 1161.43C3715.27 1141.57 3724.54 1118.78 3730.4 1093.07H3821.22C3814.71 1130.5 3802.67 1164.19 3785.09 1194.14C3767.51 1223.76 3745.54 1249.32 3719.17 1270.8C3693.13 1291.96 3663.51 1308.07 3630.3 1319.14C3597.1 1330.21 3561.78 1335.74 3524.35 1335.74ZM3948.66 1325V597.461H4039V1244.92H4383.23V1325H3948.66ZM4434.99 1325L4701.59 597.461H4804.62L5071.22 1325H4976.01L4822.2 889.453C4812.43 861.458 4801.2 828.255 4788.51 789.844C4776.14 751.432 4760.68 701.628 4742.12 640.43H4764.09C4745.54 701.953 4729.91 752.083 4717.22 790.82C4704.52 829.557 4693.46 862.435 4684.02 889.453L4529.72 1325H4434.99ZM4571.22 1121.39V1041.8H4934.99V1121.39H4571.22ZM5257.75 597.461V1325H5167.41V597.461H5257.75ZM5416.44 1325V597.461H5541.44L5723.57 1062.3C5727.8 1073.05 5732.68 1086.23 5738.21 1101.86C5744.07 1117.48 5750.1 1134.08 5756.28 1151.66C5762.47 1169.24 5768.33 1186.33 5773.86 1202.93C5779.39 1219.53 5783.95 1234.02 5787.53 1246.39H5767.51C5771.09 1234.34 5775.65 1220.18 5781.18 1203.91C5786.72 1187.3 5792.41 1170.21 5798.27 1152.64C5804.46 1135.06 5810.32 1118.29 5815.85 1102.34C5821.71 1086.39 5826.76 1073.05 5830.99 1062.3L6010.19 597.461H6136.16V1325H6047.3V906.055C6047.3 890.755 6047.3 873.828 6047.3 855.273C6047.62 836.719 6047.95 817.513 6048.27 797.656C6048.92 777.799 6049.41 757.78 6049.74 737.598C6050.39 717.09 6050.88 697.233 6051.2 678.027H6061.46C6053.97 700.488 6046.32 722.949 6038.51 745.41C6030.7 767.546 6023.21 788.704 6016.05 808.887C6008.89 829.069 6002.21 847.461 5996.03 864.062C5990.17 880.339 5984.96 894.336 5980.4 906.055L5813.9 1325H5738.21L5570.25 906.055C5565.69 894.661 5560.32 880.827 5554.13 864.551C5548.27 847.949 5541.6 829.72 5534.11 809.863C5526.95 790.007 5519.3 768.848 5511.16 746.387C5503.35 723.926 5495.21 701.139 5486.75 678.027H5499.93C5500.58 696.257 5501.07 715.462 5501.4 735.645C5502.05 755.501 5502.54 775.521 5502.86 795.703C5503.19 815.885 5503.51 835.417 5503.84 854.297C5504.17 872.852 5504.33 890.104 5504.33 906.055V1325H5416.44Z" fill="white"/>
<rect x="0.433013" y="0.75" width="992.017" height="992.017" transform="matrix(0.866025 0.5 0 1 1033.06 496.292)" fill="url(#paint0_linear_777_206)" stroke="white"/>
<rect x="0.433013" y="0.25" width="992.017" height="992.017" transform="matrix(0.866025 -0.5 0 1 1893.08 993.234)" fill="url(#paint1_linear_777_206)" stroke="white"/>
<rect x="0.866025" width="992.017" height="992.017" transform="matrix(0.866025 -0.5 0.866025 0.5 1033.12 496.942)" fill="url(#paint2_linear_777_206)" stroke="white"/>
<path d="M5850.74 1449.07C5847.97 1449.07 5845.55 1448.63 5843.46 1447.76C5841.41 1446.88 5839.65 1445.74 5838.19 1444.34C5836.76 1442.94 5835.57 1441.46 5834.62 1439.89H5834.14V1448H5825.84V1375.25H5834.38V1403.22H5834.72C5835.6 1401.73 5836.74 1400.29 5838.14 1398.93C5839.57 1397.56 5841.31 1396.44 5843.37 1395.56C5845.45 1394.68 5847.89 1394.24 5850.69 1394.24C5855.21 1394.24 5859.17 1395.38 5862.55 1397.66C5865.97 1399.9 5868.63 1403.08 5870.51 1407.18C5872.43 1411.28 5873.39 1416.1 5873.39 1421.63C5873.39 1427.13 5872.45 1431.94 5870.56 1436.04C5868.67 1440.14 5866.02 1443.35 5862.6 1445.66C5859.22 1447.93 5855.26 1449.07 5850.74 1449.07ZM5849.42 1441.41C5852.61 1441.41 5855.34 1440.59 5857.62 1438.97C5859.93 1437.34 5861.71 1435.04 5862.95 1432.08C5864.18 1429.09 5864.8 1425.59 5864.8 1421.58C5864.8 1417.55 5864.18 1414.06 5862.95 1411.13C5861.71 1408.17 5859.95 1405.89 5857.67 1404.3C5855.39 1402.67 5852.64 1401.86 5849.42 1401.86C5846.16 1401.86 5843.38 1402.69 5841.07 1404.35C5838.76 1405.98 5836.99 1408.27 5835.75 1411.23C5834.54 1414.16 5833.94 1417.61 5833.94 1421.58C5833.94 1425.52 5834.54 1428.99 5835.75 1431.98C5836.99 1434.95 5838.76 1437.26 5841.07 1438.92C5843.41 1440.58 5846.2 1441.41 5849.42 1441.41ZM5884.43 1468.12L5885.4 1460.7L5888.63 1460.79C5890.03 1460.99 5891.28 1460.91 5892.39 1460.55C5893.49 1460.22 5894.5 1459.52 5895.41 1458.45C5896.33 1457.41 5897.12 1455.91 5897.81 1453.96L5900.1 1447.9L5879.74 1395.07H5888.97L5900.35 1425.98C5901.42 1428.84 5902.38 1431.71 5903.23 1434.57C5904.11 1437.4 5904.98 1440.2 5905.86 1442.97H5903.18C5904.06 1440.2 5904.94 1437.4 5905.81 1434.57C5906.69 1431.71 5907.65 1428.84 5908.7 1425.98L5919.97 1395.07H5929.15L5905.28 1456.94C5904.3 1459.51 5903.08 1461.66 5901.62 1463.38C5900.15 1465.11 5898.44 1466.41 5896.49 1467.29C5894.57 1468.17 5892.44 1468.61 5890.09 1468.61C5888.92 1468.61 5887.85 1468.54 5886.87 1468.41C5885.89 1468.31 5885.08 1468.21 5884.43 1468.12ZM5969.43 1448V1375.25H5979.93L6009.72 1422.22C6010.43 1423.33 6011.31 1424.76 6012.35 1426.52C6013.4 1428.27 6014.52 1430.23 6015.72 1432.38C6016.93 1434.49 6018.1 1436.67 6019.24 1438.92L6018.16 1439.89C6018 1437.71 6017.87 1435.42 6017.77 1433.01C6017.68 1430.57 6017.61 1428.29 6017.58 1426.17C6017.55 1424.06 6017.53 1422.4 6017.53 1421.19V1375.25H6026.51V1448H6015.97L5989.4 1406.2C5988.49 1404.74 5987.42 1403 5986.18 1400.98C5984.98 1398.96 5983.58 1396.58 5981.98 1393.85C5980.39 1391.12 5978.53 1387.94 5976.42 1384.33L5977.73 1383.01C5977.9 1386.72 5978.03 1390.09 5978.12 1393.12C5978.26 1396.11 5978.34 1398.72 5978.37 1400.93C5978.43 1403.11 5978.47 1404.84 5978.47 1406.11V1448H5969.43ZM6044.38 1448V1375.25H6090.38V1383.25H6053.42V1406.98H6087.74V1414.99H6053.42V1439.99H6090.57V1448H6044.38ZM6099.36 1448L6127.78 1407.42V1414.11L6100.97 1375.25H6111.37L6122.02 1390.82C6123.29 1392.71 6124.43 1394.44 6125.44 1396C6126.48 1397.56 6127.47 1399.11 6128.41 1400.64C6129.36 1402.17 6130.35 1403.83 6131.39 1405.62H6129.88C6130.92 1403.86 6131.91 1402.22 6132.86 1400.69C6133.8 1399.16 6134.79 1397.61 6135.84 1396.05C6136.91 1394.45 6138.1 1392.71 6139.4 1390.82L6150.19 1375.25H6160.4L6133.59 1413.72V1407.08L6161.71 1448H6151.36L6138.52 1429.4C6137.35 1427.67 6136.26 1426.08 6135.25 1424.61C6134.27 1423.15 6133.33 1421.68 6132.42 1420.22C6131.54 1418.75 6130.6 1417.16 6129.59 1415.43H6131.59C6130.61 1417.12 6129.65 1418.7 6128.71 1420.17C6127.8 1421.63 6126.84 1423.1 6125.83 1424.56C6124.85 1426.03 6123.76 1427.64 6122.55 1429.4L6109.62 1448H6099.36ZM5968.75 1530V1457.25H5994.82C5999.77 1457.25 6003.95 1458.08 6007.37 1459.74C6010.79 1461.36 6013.38 1463.63 6015.13 1466.52C6016.89 1469.42 6017.77 1472.77 6017.77 1476.58C6017.77 1479.48 6017.26 1481.95 6016.26 1484C6015.25 1486.05 6013.85 1487.73 6012.06 1489.03C6010.27 1490.34 6008.22 1491.36 6005.9 1492.11V1492.45C6008.44 1492.74 6010.84 1493.61 6013.08 1495.04C6015.33 1496.44 6017.15 1498.39 6018.55 1500.9C6019.98 1503.37 6020.7 1506.42 6020.7 1510.03C6020.7 1513.97 6019.79 1517.43 6017.96 1520.43C6016.17 1523.42 6013.41 1525.77 6009.66 1527.46C6005.92 1529.15 6001.17 1530 5995.41 1530H5968.75ZM5977.78 1521.99H5995.31C6000.88 1521.99 6005.01 1520.93 6007.71 1518.82C6010.41 1516.7 6011.76 1513.82 6011.76 1510.18C6011.76 1507.6 6011.13 1505.33 6009.86 1503.34C6008.59 1501.35 6006.77 1499.79 6004.39 1498.65C6002.01 1497.51 5999.15 1496.94 5995.8 1496.94H5977.78V1521.99ZM5977.78 1489.18H5994.77C5997.6 1489.18 6000.09 1488.69 6002.24 1487.71C6004.39 1486.71 6006.05 1485.29 6007.22 1483.47C6008.39 1481.61 6008.98 1479.43 6008.98 1476.92C6008.98 1473.47 6007.79 1470.67 6005.42 1468.53C6003.04 1466.34 5999.54 1465.25 5994.92 1465.25H5977.78V1489.18ZM6044.33 1457.25V1530H6035.3V1457.25H6044.33ZM6057.76 1465.25V1457.25H6113.42V1465.25H6090.13V1530H6081.14V1465.25H6057.76Z" fill="white"/>
<defs>
<linearGradient id="paint0_linear_777_206" x1="496.509" y1="0" x2="496.509" y2="993.017" gradientUnits="userSpaceOnUse">
<stop stop-color="#0066FF"/>
<stop offset="1" stop-color="#EA8CFF"/>
</linearGradient>
<linearGradient id="paint1_linear_777_206" x1="496.509" y1="0" x2="496.509" y2="993.017" gradientUnits="userSpaceOnUse">
<stop stop-color="#0066FF"/>
<stop offset="1" stop-color="#EA8CFF"/>
</linearGradient>
<linearGradient id="paint2_linear_777_206" x1="496.509" y1="0" x2="496.509" y2="993.017" gradientUnits="userSpaceOnUse">
<stop stop-color="#0066FF"/>
<stop offset="1" stop-color="#EA8CFF"/>
</linearGradient>
</defs>
</svg>
