<svg width="706" height="1149" viewBox="0 0 706 1149" fill="none" xmlns="http://www.w3.org/2000/svg">
<path d="M354.734 1147.01V861.718L704.013 653.75L354.734 1147.01Z" fill="url(#paint0_linear_771_117)" stroke="white"/>
<mask id="path-2-inside-1_771_117" fill="white">
<path d="M354.234 0L705.785 585.023L354.234 794.344L0 585.023"/>
</mask>
<path d="M354.234 0L705.785 585.023L354.234 794.344L0 585.023" fill="url(#paint1_linear_771_117)"/>
<path d="M705.785 585.023L706.297 585.883L707.159 585.369L706.642 584.508L705.785 585.023ZM354.234 794.344L353.726 795.205L354.236 795.506L354.746 795.203L354.234 794.344ZM354.234 0L353.377 0.515074L704.928 585.539L705.785 585.023L706.642 584.508L355.092 -0.515074L354.234 0ZM705.785 585.023L705.274 584.164L353.723 793.485L354.234 794.344L354.746 795.203L706.297 585.883L705.785 585.023ZM354.234 794.344L354.743 793.483L0.508729 584.163L0 585.023L-0.508729 585.884L353.726 795.205L354.234 794.344Z" fill="white" mask="url(#path-2-inside-1_771_117)"/>
<mask id="path-4-inside-2_771_117" fill="white">
<path d="M354.234 0V424.008L0 585.023M0 652.113L354.234 861.434V1148.58"/>
</mask>
<path d="M354.234 0V424.008L0 585.023M0 652.113L354.234 861.434V1148.58" fill="url(#paint2_linear_771_117)"/>
<path d="M354.234 424.008L354.648 424.918L355.234 424.652V424.008H354.234ZM354.234 861.434H355.234V860.863L354.743 860.573L354.234 861.434ZM354.234 0H353.234V424.008H354.234H355.234V0H354.234ZM354.234 424.008L353.821 423.097L-0.413803 584.113L0 585.023L0.413803 585.934L354.648 424.918L354.234 424.008ZM0 652.113L-0.508729 652.974L353.726 862.295L354.234 861.434L354.743 860.573L0.508729 651.252L0 652.113ZM354.234 861.434H353.234V1148.58H354.234H355.234V861.434H354.234Z" fill="white" mask="url(#path-4-inside-2_771_117)"/>
<mask id="path-6-inside-3_771_117" fill="white">
<path d="M354.234 424.008V794.344L705.785 585.023"/>
</mask>
<path d="M354.234 424.008V794.344L705.785 585.023" fill="url(#paint3_linear_771_117)"/>
<path d="M354.234 794.344H353.234V796.103L354.746 795.203L354.234 794.344ZM354.234 424.008H353.234V794.344H354.234H355.234V424.008H354.234ZM354.234 794.344L354.746 795.203L706.297 585.883L705.785 585.023L705.274 584.164L353.723 793.485L354.234 794.344Z" fill="white" mask="url(#path-6-inside-3_771_117)"/>
<mask id="path-8-inside-4_771_117" fill="white">
<path d="M0 585.023L354.234 424.008V794.344"/>
</mask>
<path d="M0 585.023L354.234 424.008V794.344" fill="url(#paint4_linear_771_117)"/>
<path d="M354.234 424.008H355.234V422.455L353.821 423.097L354.234 424.008ZM0 585.023L0.413803 585.934L354.648 424.918L354.234 424.008L353.821 423.097L-0.413803 584.113L0 585.023ZM354.234 424.008H353.234V794.344H354.234H355.234V424.008H354.234Z" fill="white" mask="url(#path-8-inside-4_771_117)"/>
<defs>
<linearGradient id="paint0_linear_771_117" x1="530.01" y1="652.113" x2="530.01" y2="1148.58" gradientUnits="userSpaceOnUse">
<stop stop-color="#0066FF"/>
<stop offset="1" stop-color="#EA8CFF"/>
</linearGradient>
<linearGradient id="paint1_linear_771_117" x1="352.893" y1="0" x2="352.893" y2="794.344" gradientUnits="userSpaceOnUse">
<stop stop-color="#0066FF"/>
<stop offset="1" stop-color="#EA8CFF"/>
</linearGradient>
<linearGradient id="paint2_linear_771_117" x1="177.117" y1="0" x2="177.117" y2="1148.58" gradientUnits="userSpaceOnUse">
<stop stop-color="#0066FF"/>
<stop offset="1" stop-color="#EA8CFF"/>
</linearGradient>
<linearGradient id="paint3_linear_771_117" x1="530.01" y1="424.008" x2="530.01" y2="794.344" gradientUnits="userSpaceOnUse">
<stop stop-color="#0066FF"/>
<stop offset="1" stop-color="#EA8CFF"/>
</linearGradient>
<linearGradient id="paint4_linear_771_117" x1="177.117" y1="424.008" x2="177.117" y2="794.344" gradientUnits="userSpaceOnUse">
<stop stop-color="#0066FF"/>
<stop offset="1" stop-color="#EA8CFF"/>
</linearGradient>
</defs>
</svg>
