<svg width="7356" height="7317" viewBox="0 0 7356 7317" fill="none" xmlns="http://www.w3.org/2000/svg">
<rect x="0.433013" y="0.75" width="3344.19" height="3344.19" transform="matrix(0.866025 0.5 0 1 781.058 1975.38)" fill="url(#paint0_linear_785_303)" stroke="white"/>
<rect x="0.433013" y="0.25" width="3344.19" height="3344.19" transform="matrix(0.866025 -0.5 0 1 3678.23 3648.41)" fill="url(#paint1_linear_785_303)" stroke="white"/>
<rect x="0.866025" width="3344.19" height="3344.19" transform="matrix(0.866025 -0.5 0.866025 0.5 781.116 1976.03)" fill="url(#paint2_linear_785_303)" stroke="white"/>
<path d="M3699.49 6957.21V7213.46H3656.01V6957.21H3699.49ZM3805.87 7063.59V7107.08H3549.63V7063.59H3805.87Z" fill="white"/>
<path d="M2894.01 7126.53L2941.42 7134.89C2941.82 7149.02 2944.61 7161.87 2949.8 7173.43C2954.86 7184.96 2961.75 7195.11 2970.45 7203.88C2979.01 7212.74 2988.96 7220.02 3000.31 7225.7C3011.66 7231.38 3023.84 7235.37 3036.84 7237.66C3060.54 7241.84 3083.08 7239.64 3104.43 7231.05C3125.66 7222.44 3144.01 7207.47 3159.46 7186.15C3174.79 7164.8 3185.44 7137.18 3191.42 7103.28C3197.4 7069.38 3196.84 7039.78 3189.73 7014.47C3182.5 6989.15 3170.38 6968.81 3153.38 6953.46C3136.25 6938.09 3115.83 6928.31 3092.12 6924.13C3079.12 6921.84 3066.32 6921.42 3053.71 6922.88C3041.1 6924.33 3029.27 6927.7 3018.22 6932.98C3007.02 6938.37 2997.07 6945.61 2988.36 6954.72C2979.51 6963.94 2972.49 6975.05 2967.31 6988.07L2919.9 6979.71C2926.99 6960.33 2936.65 6943.57 2948.87 6929.43C2961.09 6915.29 2975.18 6903.91 2991.16 6895.29C3007.11 6886.8 3024.32 6881.23 3042.79 6878.57C3061.14 6875.89 3080.19 6876.3 3099.94 6879.78C3133.33 6885.67 3161.59 6899.06 3184.71 6919.96C3207.84 6940.86 3224.2 6967.66 3233.81 7000.37C3243.42 7033.07 3244.58 7070.08 3237.3 7111.37C3230.02 7152.66 3216.27 7187.03 3196.06 7214.48C3175.84 7241.93 3151.3 7261.52 3122.42 7273.25C3093.54 7284.98 3062.41 7287.9 3029.02 7282.01C3009.26 7278.53 2991.22 7272.39 2974.9 7263.6C2958.45 7254.79 2944.2 7243.6 2932.13 7230.04C2920.04 7216.61 2910.68 7201.16 2904.03 7183.69C2897.37 7166.35 2894.02 7147.3 2894.01 7126.53Z" fill="white"/>
<path d="M2632.28 6766.55L2496.3 7140.14L2451.06 7123.68L2572.43 6790.22L2398.77 6727.01L2413.37 6686.88L2632.28 6766.55Z" fill="white"/>
<path d="M2121.09 6545.19L2164.8 6570.43L1839.59 6841.74L1796.55 6816.89L1868.91 6399.6L1912.62 6424.83L1848.17 6774.07L1850.86 6775.62L2121.09 6545.19ZM2027.3 6670.37L1851.11 6568.64L1872.46 6531.66L2048.65 6633.38L2027.3 6670.37Z" fill="white"/>
<path d="M1296.26 6458.75L1551.81 6154.2L1588.69 6185.15L1333.14 6489.7L1296.26 6458.75Z" fill="white"/>
<path d="M971.09 6151.65L934.155 6107.63L1100.11 5792L1097.12 5788.43L757.465 5897.06L720.53 5853.04L1025.08 5597.49L1054.03 5631.99L822.643 5826.15L825.139 5829.12L1136.39 5730.14L1164.34 5763.45L1012.81 6052.78L1015.3 6055.75L1246.69 5861.59L1275.64 5896.09L971.09 6151.65Z" fill="white"/>
<path d="M825.7 5329.9L603.786 5458.02L582.044 5420.36L803.958 5292.24L825.7 5329.9ZM786.762 5475.21L749.104 5496.96L620.982 5275.04L658.64 5253.3L786.762 5475.21Z" fill="white"/>
<path d="M282.131 4714.05L298.597 4759.29C286.558 4766.7 276.831 4775.54 269.414 4785.81C261.954 4795.97 256.606 4807 253.37 4818.92C249.968 4830.77 248.645 4843.02 249.4 4855.69C250.156 4868.36 252.791 4880.9 257.306 4893.31C265.539 4915.93 278.713 4934.34 296.828 4948.54C314.899 4962.62 337.032 4971.02 363.226 4973.75C389.376 4976.35 418.626 4971.76 450.974 4959.99C483.323 4948.21 508.677 4932.93 527.037 4914.12C545.353 4895.2 556.906 4874.54 561.698 4852.14C566.446 4829.61 564.704 4807.04 556.471 4784.42C551.956 4772.02 545.916 4760.72 538.35 4750.52C530.784 4740.33 521.952 4731.77 511.855 4724.84C501.593 4717.83 490.341 4712.84 478.1 4709.86C465.694 4706.8 452.558 4706.28 438.693 4708.29L422.227 4663.06C442.56 4659.51 461.904 4659.5 480.259 4663.01C498.614 4666.52 515.517 4673.03 530.966 4682.56C546.293 4692.13 559.725 4704.25 571.262 4718.92C582.754 4733.47 591.931 4750.17 598.792 4769.02C610.388 4800.88 612.919 4832.05 606.382 4862.52C599.845 4893 584.816 4920.57 561.295 4945.25C537.773 4969.92 506.311 4989.43 466.909 5003.77C427.507 5018.11 390.866 5023.39 356.987 5019.61C323.108 5015.82 293.87 5004.36 269.274 4985.22C244.678 4966.08 226.582 4940.57 214.985 4908.71C208.124 4889.86 204.42 4871.17 203.873 4852.64C203.281 4833.99 205.841 4816.05 211.553 4798.82C217.142 4781.63 225.839 4765.8 237.644 4751.31C249.326 4736.87 264.155 4724.45 282.131 4714.05Z" fill="white"/>
<path d="M463.012 4307.4L71.4841 4376.43L63.1242 4329.02L412.593 4267.4L380.502 4085.4L422.56 4077.99L463.012 4307.4Z" fill="white"/>
<path d="M397.794 3752.14V3802.62L0.226562 3656.63V3606.94L397.794 3460.96V3511.43L63.123 3630.23V3633.34L397.794 3752.14ZM242.494 3733.51V3530.07H285.202V3733.51H242.494Z" fill="white"/>
<path d="M61.5963 2996.49L453.124 3065.52L444.764 3112.94L53.2363 3043.9L61.5963 2996.49Z" fill="white"/>
<path d="M164.977 2561.33L184.63 2507.34L540.95 2493.25L542.544 2488.87L278.645 2249.03L298.297 2195.04L671.889 2331.01L656.485 2373.34L372.643 2270.03L371.315 2273.67L612.665 2493.73L597.792 2534.59L271.458 2548.03L270.13 2551.68L553.972 2654.99L538.568 2697.31L164.977 2561.33Z" fill="white"/>
<path d="M803.937 2024.53L582.023 1896.41L603.765 1858.75L825.679 1986.88L803.937 2024.53ZM658.619 2063.47L620.961 2041.73L749.083 1819.82L786.741 1841.56L658.619 2063.47Z" fill="white"/>
<path d="M1065.49 1245.88L1034.55 1282.76C1022.11 1276.04 1009.59 1272.04 996.983 1270.75C984.461 1269.37 972.229 1270.25 960.288 1273.41C948.331 1276.39 937.054 1281.37 926.459 1288.36C915.863 1295.35 906.323 1303.9 897.838 1314.01C882.365 1332.45 873.008 1353.06 869.765 1375.85C866.606 1398.54 870.396 1421.91 881.135 1445.96C891.957 1469.91 910.553 1492.95 936.924 1515.07C963.295 1537.2 989.212 1551.51 1014.67 1558.01C1040.22 1564.41 1063.89 1564.09 1085.69 1557.04C1107.57 1549.89 1126.25 1537.09 1141.72 1518.65C1150.2 1508.54 1156.97 1497.66 1162.01 1486.01C1167.06 1474.36 1170.05 1462.43 1171.01 1450.22C1171.94 1437.83 1170.64 1425.59 1167.11 1413.5C1163.55 1401.23 1157.44 1389.59 1148.76 1378.59L1179.7 1341.71C1192.94 1357.55 1202.62 1374.29 1208.76 1391.94C1214.9 1409.59 1217.7 1427.49 1217.18 1445.63C1216.55 1463.69 1212.77 1481.39 1205.84 1498.71C1198.99 1515.94 1189.11 1532.23 1176.22 1547.6C1154.42 1573.57 1128.7 1591.35 1099.04 1600.93C1069.38 1610.5 1037.98 1611.27 1004.85 1603.24C971.723 1595.21 939.098 1577.72 906.977 1550.76C874.856 1523.81 851.963 1494.72 838.299 1463.49C824.636 1432.26 819.944 1401.2 824.224 1370.33C828.505 1339.46 841.543 1311.04 863.338 1285.06C876.232 1269.69 890.566 1257.14 906.341 1247.4C922.199 1237.56 939.016 1230.81 956.791 1227.14C974.468 1223.39 992.531 1223.01 1010.98 1225.98C1029.33 1228.88 1047.5 1235.51 1065.49 1245.88Z" fill="white"/>
<path d="M1508.11 1199.21L1252.56 894.652L1289.43 863.706L1517.53 1135.54L1659.1 1016.75L1686.56 1049.47L1508.11 1199.21Z" fill="white"/>
<path d="M1955.39 867.21L1911.68 892.447L1839.32 475.152L1882.36 450.305L2207.57 721.617L2163.86 746.853L1893.64 516.422L1890.95 517.975L1955.39 867.21ZM1893.88 723.399L2070.07 621.678L2091.42 658.663L1915.24 760.385L1893.88 723.399Z" fill="white"/>
<path d="M2442.67 196.099L2578.65 569.69L2533.41 586.155L2397.43 212.565L2442.67 196.099Z" fill="white"/>
<path d="M2871.22 68.0537L2927.81 58.0757L3118.17 359.612L3122.76 358.803L3198.51 10.3432L3255.1 0.365234L3324.14 391.892L3279.79 399.713L3227.33 102.244L3223.51 102.918L3153.61 421.961L3110.79 429.512L2935.98 153.617L2932.16 154.291L2984.61 451.76L2940.26 459.581L2871.22 68.0537Z" fill="white"/>
<path d="M3655.96 361.217V104.973H3699.44V361.217H3655.96ZM3549.58 254.837V211.353H3805.82V254.837H3549.58Z" fill="white"/>
<path d="M4460.7 190.19L4413.29 181.83C4412.89 167.699 4410.09 154.853 4404.9 143.294C4399.84 131.757 4392.96 121.607 4384.25 112.844C4375.7 103.977 4365.74 96.7024 4354.39 91.0213C4343.04 85.3402 4330.87 81.3536 4317.87 79.0614C4294.16 74.8814 4271.63 77.0849 4250.27 85.6718C4229.04 94.2812 4210.7 109.248 4195.24 130.571C4179.92 151.917 4169.26 179.54 4163.28 213.442C4157.31 247.344 4157.87 276.945 4164.97 302.246C4172.2 327.57 4184.32 347.907 4201.33 363.258C4218.46 378.632 4238.88 388.409 4262.58 392.589C4275.58 394.881 4288.39 395.299 4301 393.843C4313.61 392.387 4325.44 389.019 4336.49 383.74C4347.69 378.356 4357.64 371.108 4366.34 361.998C4375.19 352.784 4382.21 341.668 4387.4 328.653L4434.81 337.013C4427.71 356.393 4418.05 373.154 4405.84 387.295C4393.62 401.436 4379.52 412.814 4363.55 421.43C4347.6 429.919 4330.38 435.492 4311.91 438.148C4293.57 440.827 4274.52 440.425 4254.76 436.942C4221.37 431.054 4193.11 417.661 4169.99 396.763C4146.87 375.865 4130.5 349.062 4120.89 316.354C4111.28 283.647 4110.12 246.646 4117.4 205.352C4124.68 164.058 4138.43 129.687 4158.65 102.238C4178.86 74.7888 4203.41 55.1997 4232.28 43.4706C4261.16 31.7414 4292.3 28.8208 4325.69 34.7087C4345.44 38.192 4363.48 44.3294 4379.8 53.121C4396.25 61.935 4410.51 73.1222 4422.57 86.6824C4434.66 100.115 4444.03 115.565 4450.67 133.032C4457.34 150.371 4460.68 169.424 4460.7 190.19Z" fill="white"/>
<path d="M4722.43 550.171L4858.41 176.58L4903.65 193.046L4782.28 526.505L4955.94 589.712L4941.33 629.844L4722.43 550.171Z" fill="white"/>
<path d="M5233.58 771.54L5189.87 746.303L5515.08 474.991L5558.12 499.839L5485.76 917.133L5442.05 891.897L5506.5 542.661L5503.81 541.108L5233.58 771.54ZM5327.37 646.364L5503.56 748.085L5482.2 785.071L5306.02 683.35L5327.37 646.364Z" fill="white"/>
<path d="M6058.41 857.97L5802.86 1162.52L5765.98 1131.58L6021.53 827.024L6058.41 857.97Z" fill="white"/>
<path d="M6383.58 1165.08L6420.51 1209.1L6254.56 1524.72L6257.55 1528.29L6597.2 1419.67L6634.14 1463.68L6329.58 1719.24L6300.64 1684.74L6532.03 1490.58L6529.53 1487.6L6218.28 1586.59L6190.33 1553.28L6341.86 1263.95L6339.36 1260.97L6107.97 1455.13L6079.02 1420.63L6383.58 1165.08Z" fill="white"/>
<path d="M6528.97 1986.83L6750.88 1858.71L6772.62 1896.37L6550.71 2024.49L6528.97 1986.83ZM6567.91 1841.52L6605.56 1819.77L6733.69 2041.69L6696.03 2063.43L6567.91 1841.52Z" fill="white"/>
<path d="M7072.54 2602.68L7056.07 2557.44C7068.11 2550.03 7077.84 2541.18 7085.26 2530.91C7092.72 2520.76 7098.06 2509.72 7101.3 2497.8C7104.7 2485.96 7106.03 2473.7 7105.27 2461.03C7104.51 2448.36 7101.88 2435.82 7097.36 2423.42C7089.13 2400.8 7075.96 2382.39 7057.84 2368.18C7039.77 2354.1 7017.64 2345.7 6991.44 2342.98C6965.29 2340.38 6936.04 2344.96 6903.7 2356.74C6871.35 2368.51 6845.99 2383.8 6827.63 2402.6C6809.32 2421.52 6797.76 2442.19 6792.97 2464.59C6788.22 2487.11 6789.97 2509.69 6798.2 2532.3C6802.71 2544.71 6808.75 2556.01 6816.32 2566.2C6823.89 2576.39 6832.72 2584.95 6842.81 2591.88C6853.08 2598.89 6864.33 2603.88 6876.57 2606.87C6888.98 2609.92 6902.11 2610.45 6915.98 2608.43L6932.44 2653.67C6912.11 2657.21 6892.77 2657.23 6874.41 2653.72C6856.06 2650.21 6839.15 2643.69 6823.7 2634.16C6808.38 2624.59 6794.94 2612.47 6783.41 2597.8C6771.92 2583.26 6762.74 2566.56 6755.88 2547.71C6744.28 2515.85 6741.75 2484.68 6748.29 2454.2C6754.82 2423.73 6769.85 2396.15 6793.38 2371.48C6816.9 2346.81 6848.36 2327.3 6887.76 2312.96C6927.16 2298.61 6963.8 2293.34 6997.68 2297.12C7031.56 2300.9 7060.8 2312.36 7085.4 2331.51C7109.99 2350.65 7128.09 2376.15 7139.69 2408.01C7146.55 2426.86 7150.25 2445.55 7150.8 2464.09C7151.39 2482.74 7148.83 2500.68 7143.12 2517.91C7137.53 2535.09 7128.83 2550.93 7117.03 2565.41C7105.34 2579.86 7090.51 2592.28 7072.54 2602.68Z" fill="white"/>
<path d="M6891.66 3009.33L7283.19 2940.29L7291.55 2987.7L6942.08 3049.32L6974.17 3231.32L6932.11 3238.74L6891.66 3009.33Z" fill="white"/>
<path d="M6957.66 3557.18V3506.71L7355.23 3652.69V3702.38L6957.66 3848.37V3797.89L7292.33 3679.09V3675.98L6957.66 3557.18ZM7112.96 3575.81V3779.26H7070.25V3575.81H7112.96Z" fill="white"/>
<path d="M7293.11 4320.24L6901.58 4251.2L6909.94 4203.79L7301.47 4272.83L7293.11 4320.24Z" fill="white"/>
<path d="M7189.69 4755.39L7170.04 4809.39L6813.72 4823.48L6812.13 4827.86L7076.03 5067.69L7056.37 5121.69L6682.78 4985.71L6698.19 4943.39L6982.03 5046.7L6983.35 5043.05L6742.01 4822.99L6756.88 4782.13L7083.21 4768.69L7084.54 4765.05L6800.7 4661.74L6816.1 4619.42L7189.69 4755.39Z" fill="white"/>
<path d="M6550.77 5292.19L6772.68 5420.31L6750.94 5457.97L6529.03 5329.85L6550.77 5292.19ZM6696.09 5253.25L6733.75 5274.99L6605.62 5496.91L6567.96 5475.17L6696.09 5253.25Z" fill="white"/>
<path d="M6289.21 6070.84L6320.16 6033.97C6332.59 6040.69 6345.12 6044.69 6357.72 6045.97C6370.24 6047.36 6382.48 6046.47 6394.42 6043.31C6406.37 6040.34 6417.65 6035.36 6428.25 6028.37C6438.84 6021.38 6448.38 6012.83 6456.87 6002.71C6472.34 5984.27 6481.7 5963.66 6484.94 5940.87C6488.1 5918.18 6484.31 5894.81 6473.57 5870.76C6462.75 5846.82 6444.15 5823.78 6417.78 5801.65C6391.41 5779.52 6365.49 5765.21 6340.03 5758.71C6314.48 5752.31 6290.81 5752.64 6269.01 5759.69C6247.13 5766.84 6228.46 5779.63 6212.98 5798.07C6204.5 5808.19 6197.74 5819.07 6192.69 5830.71C6187.65 5842.36 6184.65 5854.29 6183.7 5866.5C6182.76 5878.89 6184.06 5891.13 6187.6 5903.22C6191.15 5915.5 6197.27 5927.13 6205.95 5938.13L6175 5975.01C6161.77 5959.18 6152.08 5942.43 6145.94 5924.78C6139.81 5907.13 6137 5889.23 6137.52 5871.09C6138.15 5853.03 6141.93 5835.34 6148.87 5818.01C6155.72 5800.79 6165.59 5784.49 6178.48 5769.12C6200.28 5743.15 6226.01 5725.37 6255.67 5715.8C6285.33 5706.22 6316.72 5705.45 6349.85 5713.48C6382.98 5721.52 6415.61 5739.01 6447.73 5765.96C6479.85 5792.91 6502.74 5822.01 6516.41 5853.24C6530.07 5884.47 6534.76 5915.52 6530.48 5946.39C6526.2 5977.27 6513.16 6005.69 6491.37 6031.66C6478.47 6047.03 6464.14 6059.58 6448.36 6069.32C6432.51 6079.16 6415.69 6085.91 6397.91 6089.58C6380.24 6093.33 6362.17 6093.72 6343.72 6090.74C6325.38 6087.84 6307.2 6081.21 6289.21 6070.84Z" fill="white"/>
<path d="M5846.56 6117.52L6102.11 6422.08L6065.23 6453.02L5837.13 6181.18L5695.56 6299.98L5668.11 6267.26L5846.56 6117.52Z" fill="white"/>
<path d="M5399.27 6449.51L5442.98 6424.28L5515.34 6841.57L5472.31 6866.42L5147.1 6595.11L5190.81 6569.87L5461.03 6800.3L5463.72 6798.75L5399.27 6449.51ZM5460.79 6593.33L5284.6 6695.05L5263.24 6658.06L5439.43 6556.34L5460.79 6593.33Z" fill="white"/>
<path d="M4912.03 7120.63L4776.06 6747.04L4821.3 6730.57L4957.27 7104.17L4912.03 7120.63Z" fill="white"/>
<path d="M4483.48 7248.68L4426.9 7258.65L4236.53 6957.12L4231.94 6957.93L4156.19 7306.39L4099.6 7316.37L4030.57 6924.84L4074.92 6917.02L4127.37 7214.49L4131.19 7213.81L4201.09 6894.77L4243.92 6887.22L4418.72 7163.11L4422.54 7162.44L4370.09 6864.97L4414.45 6857.15L4483.48 7248.68Z" fill="white"/>
<path d="M3687.5 5097.25V5209.09H3668.52V5097.25H3687.5ZM3733.93 5143.68V5162.66H3622.09V5143.68H3733.93Z" fill="white"/>
<path d="M3335.95 5171.15L3356.65 5174.8C3356.82 5180.96 3358.04 5186.57 3360.31 5191.62C3362.52 5196.65 3365.52 5201.08 3369.32 5204.91C3373.05 5208.78 3377.4 5211.95 3382.35 5214.43C3387.3 5216.91 3392.62 5218.65 3398.29 5219.65C3408.64 5221.47 3418.47 5220.51 3427.79 5216.76C3437.06 5213.01 3445.06 5206.48 3451.81 5197.17C3458.5 5187.85 3463.15 5175.8 3465.76 5161C3468.37 5146.2 3468.12 5133.29 3465.02 5122.24C3461.87 5111.19 3456.58 5102.31 3449.15 5095.61C3441.68 5088.91 3432.77 5084.64 3422.42 5082.81C3416.75 5081.81 3411.16 5081.63 3405.65 5082.27C3400.15 5082.9 3394.99 5084.37 3390.17 5086.68C3385.28 5089.03 3380.93 5092.19 3377.14 5096.16C3373.27 5100.19 3370.21 5105.04 3367.95 5110.72L3347.25 5107.07C3350.35 5098.61 3354.57 5091.3 3359.9 5085.12C3365.23 5078.95 3371.38 5073.99 3378.35 5070.23C3385.32 5066.52 3392.83 5064.09 3400.89 5062.93C3408.9 5061.76 3417.21 5061.94 3425.83 5063.46C3440.41 5066.03 3452.74 5071.87 3462.83 5080.99C3472.92 5090.11 3480.07 5101.81 3484.26 5116.09C3488.45 5130.36 3488.96 5146.51 3485.78 5164.53C3482.6 5182.55 3476.6 5197.55 3467.78 5209.53C3458.96 5221.51 3448.25 5230.06 3435.64 5235.18C3423.04 5240.3 3409.45 5241.58 3394.88 5239.01C3386.26 5237.49 3378.38 5234.81 3371.26 5230.97C3364.08 5227.12 3357.86 5222.24 3352.59 5216.32C3347.32 5210.46 3343.23 5203.72 3340.33 5196.1C3337.42 5188.53 3335.96 5180.21 3335.95 5171.15Z" fill="white"/>
<path d="M3221.73 5014.04L3162.38 5177.09L3142.64 5169.9L3195.61 5024.37L3119.81 4996.78L3126.19 4979.27L3221.73 5014.04Z" fill="white"/>
<path d="M2998.62 4917.43L3017.7 4928.44L2875.77 5046.85L2856.98 5036.01L2888.56 4853.89L2907.64 4864.9L2879.51 5017.32L2880.69 5018L2998.62 4917.43ZM2957.69 4972.06L2880.8 4927.66L2890.12 4911.52L2967.01 4955.92L2957.69 4972.06Z" fill="white"/>
<path d="M2638.64 4879.7L2750.17 4746.78L2766.27 4760.29L2654.73 4893.21L2638.64 4879.7Z" fill="white"/>
<path d="M2496.72 4745.67L2480.6 4726.46L2553.03 4588.71L2551.72 4587.15L2403.49 4634.56L2387.37 4615.35L2520.29 4503.81L2532.92 4518.87L2431.93 4603.61L2433.02 4604.91L2568.86 4561.71L2581.06 4576.24L2514.93 4702.52L2516.02 4703.82L2617.01 4619.08L2629.64 4634.14L2496.72 4745.67Z" fill="white"/>
<path d="M2433.27 4387.02L2336.42 4442.94L2326.93 4426.51L2423.78 4370.59L2433.27 4387.02ZM2416.27 4450.45L2399.84 4459.94L2343.92 4363.08L2360.36 4353.59L2416.27 4450.45Z" fill="white"/>
<path d="M2196.03 4118.24L2203.22 4137.99C2197.97 4141.22 2193.72 4145.08 2190.48 4149.56C2187.23 4154 2184.89 4158.81 2183.48 4164.01C2182 4169.18 2181.42 4174.53 2181.75 4180.06C2182.08 4185.59 2183.23 4191.06 2185.2 4196.48C2188.79 4206.35 2194.54 4214.39 2202.45 4220.58C2210.33 4226.73 2219.99 4230.4 2231.43 4231.59C2242.84 4232.72 2255.61 4230.72 2269.72 4225.58C2283.84 4220.44 2294.91 4213.77 2302.92 4205.56C2310.91 4197.31 2315.96 4188.29 2318.05 4178.51C2320.12 4168.68 2319.36 4158.83 2315.77 4148.96C2313.8 4143.54 2311.16 4138.61 2307.86 4134.16C2304.56 4129.71 2300.7 4125.98 2296.29 4122.95C2291.82 4119.9 2286.9 4117.72 2281.56 4116.42C2276.15 4115.08 2270.41 4114.85 2264.36 4115.73L2257.18 4095.99C2266.05 4094.44 2274.49 4094.43 2282.5 4095.97C2290.52 4097.5 2297.89 4100.34 2304.63 4104.5C2311.32 4108.68 2317.19 4113.97 2322.22 4120.37C2327.24 4126.72 2331.24 4134.01 2334.24 4142.23C2339.3 4156.14 2340.4 4169.74 2337.55 4183.04C2334.7 4196.34 2328.14 4208.38 2317.87 4219.15C2307.61 4229.92 2293.87 4238.43 2276.68 4244.69C2259.48 4250.95 2243.49 4253.25 2228.7 4251.6C2213.92 4249.95 2201.16 4244.95 2190.42 4236.59C2179.69 4228.24 2171.79 4217.11 2166.73 4203.2C2163.73 4194.97 2162.12 4186.82 2161.88 4178.73C2161.62 4170.59 2162.74 4162.76 2165.23 4155.24C2167.67 4147.74 2171.47 4140.83 2176.62 4134.51C2181.72 4128.2 2188.19 4122.78 2196.03 4118.24Z" fill="white"/>
<path d="M2274.98 3940.76L2104.1 3970.89L2100.45 3950.2L2252.97 3923.31L2238.97 3843.88L2257.32 3840.64L2274.98 3940.76Z" fill="white"/>
<path d="M2246.51 3698.43V3720.46L2073 3656.74V3635.06L2246.51 3571.34V3593.37L2100.45 3645.22V3646.58L2246.51 3698.43ZM2178.73 3690.3V3601.5H2197.37V3690.3H2178.73Z" fill="white"/>
<path d="M2099.78 3368.63L2270.66 3398.76L2267.01 3419.45L2096.14 3389.32L2099.78 3368.63Z" fill="white"/>
<path d="M2144.9 3178.71L2153.48 3155.14L2308.99 3148.99L2309.69 3147.08L2194.51 3042.41L2203.09 3018.84L2366.14 3078.19L2359.42 3096.66L2235.54 3051.57L2234.96 3053.16L2340.29 3149.21L2333.8 3167.04L2191.38 3172.9L2190.8 3174.5L2314.68 3219.59L2307.95 3238.06L2144.9 3178.71Z" fill="white"/>
<path d="M2423.77 2944.43L2326.92 2888.51L2336.41 2872.08L2433.26 2927.99L2423.77 2944.43ZM2360.35 2961.42L2343.91 2951.93L2399.83 2855.08L2416.26 2864.57L2360.35 2961.42Z" fill="white"/>
<path d="M2537.92 2604.59L2524.42 2620.69C2518.99 2617.76 2513.52 2616.01 2508.02 2615.45C2502.56 2614.84 2497.22 2615.23 2492.01 2616.61C2486.79 2617.91 2481.87 2620.08 2477.24 2623.13C2472.62 2626.18 2468.45 2629.91 2464.75 2634.33C2458 2642.38 2453.91 2651.37 2452.5 2661.32C2451.12 2671.22 2452.77 2681.42 2457.46 2691.92C2462.18 2702.37 2470.3 2712.42 2481.81 2722.08C2493.32 2731.74 2504.63 2737.98 2515.74 2740.82C2526.89 2743.61 2537.22 2743.47 2546.74 2740.39C2556.29 2737.27 2564.44 2731.69 2571.19 2723.64C2574.89 2719.23 2577.85 2714.48 2580.05 2709.4C2582.25 2704.31 2583.56 2699.11 2583.97 2693.78C2584.38 2688.37 2583.81 2683.03 2582.27 2677.75C2580.72 2672.39 2578.05 2667.31 2574.26 2662.51L2587.77 2646.42C2593.54 2653.33 2597.77 2660.64 2600.45 2668.34C2603.13 2676.04 2604.35 2683.86 2604.12 2691.77C2603.85 2699.66 2602.2 2707.38 2599.17 2714.94C2596.18 2722.46 2591.88 2729.57 2586.25 2736.28C2576.74 2747.61 2565.51 2755.37 2552.56 2759.55C2539.62 2763.73 2525.92 2764.07 2511.46 2760.56C2497 2757.05 2482.76 2749.42 2468.74 2737.66C2454.72 2725.89 2444.73 2713.2 2438.77 2699.57C2432.8 2685.94 2430.76 2672.38 2432.62 2658.91C2434.49 2645.43 2440.18 2633.03 2449.69 2621.69C2455.32 2614.99 2461.58 2609.51 2468.46 2605.26C2475.38 2600.96 2482.72 2598.02 2490.48 2596.42C2498.2 2594.78 2506.08 2594.61 2514.13 2595.91C2522.14 2597.17 2530.07 2600.07 2537.92 2604.59Z" fill="white"/>
<path d="M2731.1 2584.22L2619.56 2451.3L2635.66 2437.8L2735.21 2556.44L2797 2504.59L2808.98 2518.87L2731.1 2584.22Z" fill="white"/>
<path d="M2926.31 2439.33L2907.23 2450.34L2875.65 2268.22L2894.44 2257.37L3036.37 2375.78L3017.29 2386.8L2899.36 2286.23L2898.18 2286.91L2926.31 2439.33ZM2899.46 2376.56L2976.36 2332.17L2985.68 2348.31L2908.78 2392.7L2899.46 2376.56Z" fill="white"/>
<path d="M3138.98 2146.43L3198.32 2309.48L3178.58 2316.66L3119.23 2153.61L3138.98 2146.43Z" fill="white"/>
<path d="M3326.01 2090.54L3350.71 2086.19L3433.79 2217.79L3435.79 2217.44L3468.85 2065.35L3493.55 2061L3523.68 2231.88L3504.32 2235.29L3481.43 2105.46L3479.76 2105.76L3449.26 2245L3430.57 2248.3L3354.28 2127.89L3352.61 2128.18L3375.5 2258.01L3356.14 2261.42L3326.01 2090.54Z" fill="white"/>
<path d="M3668.5 2218.49V2106.65H3687.48V2218.49H3668.5ZM3622.07 2172.06V2153.08H3733.91V2172.06H3622.07Z" fill="white"/>
<path d="M4019.72 2143.85L3999.03 2140.2C3998.85 2134.03 3997.63 2128.42 3995.37 2123.38C3993.16 2118.34 3990.15 2113.91 3986.35 2110.09C3982.62 2106.22 3978.28 2103.05 3973.32 2100.57C3968.37 2098.09 3963.05 2096.35 3957.38 2095.35C3947.04 2093.52 3937.2 2094.48 3927.88 2098.23C3918.61 2101.99 3910.61 2108.52 3903.86 2117.83C3897.17 2127.14 3892.52 2139.2 3889.92 2154C3887.31 2168.79 3887.55 2181.71 3890.65 2192.75C3893.81 2203.81 3899.1 2212.68 3906.52 2219.38C3914 2226.09 3922.91 2230.36 3933.25 2232.18C3938.93 2233.18 3944.52 2233.37 3950.02 2232.73C3955.52 2232.09 3960.69 2230.62 3965.51 2228.32C3970.4 2225.97 3974.74 2222.81 3978.54 2218.83C3982.4 2214.81 3985.46 2209.96 3987.73 2204.28L4008.42 2207.93C4005.32 2216.39 4001.11 2223.7 3995.77 2229.87C3990.44 2236.04 3984.29 2241.01 3977.32 2244.77C3970.36 2248.47 3962.84 2250.91 3954.78 2252.07C3946.78 2253.24 3938.46 2253.06 3929.84 2251.54C3915.27 2248.97 3902.93 2243.12 3892.84 2234C3882.75 2224.88 3875.61 2213.19 3871.41 2198.91C3867.22 2184.64 3866.71 2168.49 3869.89 2150.46C3873.07 2132.44 3879.07 2117.44 3887.89 2105.46C3896.71 2093.48 3907.43 2084.93 3920.03 2079.81C3932.63 2074.69 3946.22 2073.42 3960.79 2075.99C3969.42 2077.51 3977.29 2080.19 3984.41 2084.02C3991.59 2087.87 3997.81 2092.75 4003.08 2098.67C4008.35 2104.53 4012.44 2111.28 4015.34 2118.9C4018.25 2126.47 4019.71 2134.78 4019.72 2143.85Z" fill="white"/>
<path d="M4133.95 2300.96L4193.29 2137.91L4213.04 2145.09L4160.07 2290.63L4235.86 2318.22L4229.48 2335.73L4133.95 2300.96Z" fill="white"/>
<path d="M4357.03 2397.57L4337.96 2386.56L4479.89 2268.15L4498.67 2278.99L4467.09 2461.11L4448.02 2450.1L4476.14 2297.68L4474.97 2297L4357.03 2397.57ZM4397.97 2342.94L4474.86 2387.34L4465.54 2403.48L4388.65 2359.08L4397.97 2342.94Z" fill="white"/>
<path d="M4717.02 2435.29L4605.49 2568.21L4589.39 2554.71L4700.92 2421.79L4717.02 2435.29Z" fill="white"/>
<path d="M4858.94 2569.33L4875.06 2588.54L4802.63 2726.29L4803.93 2727.85L4952.17 2680.44L4968.29 2699.65L4835.37 2811.18L4822.74 2796.13L4923.72 2711.39L4922.64 2710.09L4786.79 2753.29L4774.59 2738.75L4840.73 2612.48L4839.64 2611.18L4738.65 2695.92L4726.02 2680.86L4858.94 2569.33Z" fill="white"/>
<path d="M4922.39 2927.98L5019.24 2872.06L5028.73 2888.49L4931.88 2944.41L4922.39 2927.98ZM4939.38 2864.55L4955.82 2855.06L5011.74 2951.92L4995.3 2961.41L4939.38 2864.55Z" fill="white"/>
<path d="M5159.62 3196.76L5152.44 3177.01C5157.69 3173.78 5161.94 3169.92 5165.17 3165.43C5168.43 3161 5170.76 3156.19 5172.18 3150.98C5173.66 3145.81 5174.24 3140.46 5173.91 3134.93C5173.58 3129.4 5172.43 3123.93 5170.46 3118.52C5166.87 3108.65 5161.12 3100.61 5153.21 3094.41C5145.32 3088.27 5135.66 3084.6 5124.23 3083.41C5112.82 3082.28 5100.05 3084.28 5085.93 3089.42C5071.82 3094.55 5060.75 3101.23 5052.74 3109.43C5044.74 3117.69 5039.7 3126.71 5037.61 3136.49C5035.54 3146.32 5036.3 3156.17 5039.89 3166.04C5041.86 3171.46 5044.5 3176.39 5047.8 3180.83C5051.1 3185.28 5054.96 3189.02 5059.36 3192.04C5063.84 3195.1 5068.75 3197.28 5074.1 3198.58C5079.51 3199.92 5085.24 3200.15 5091.29 3199.27L5098.48 3219.01C5089.61 3220.56 5081.17 3220.56 5073.15 3219.03C5065.14 3217.5 5057.77 3214.65 5051.02 3210.5C5044.33 3206.32 5038.47 3201.03 5033.44 3194.63C5028.42 3188.28 5024.42 3180.99 5021.42 3172.76C5016.36 3158.86 5015.26 3145.26 5018.11 3131.95C5020.96 3118.65 5027.52 3106.62 5037.79 3095.85C5048.05 3085.08 5061.78 3076.57 5078.98 3070.31C5096.18 3064.05 5112.17 3061.75 5126.95 3063.4C5141.74 3065.05 5154.5 3070.05 5165.24 3078.4C5175.97 3086.76 5183.87 3097.89 5188.93 3111.8C5191.92 3120.02 5193.54 3128.18 5193.78 3136.27C5194.04 3144.41 5192.92 3152.24 5190.43 3159.76C5187.99 3167.26 5184.19 3174.17 5179.04 3180.49C5173.94 3186.8 5167.47 3192.22 5159.62 3196.76Z" fill="white"/>
<path d="M5080.68 3374.23L5251.56 3344.1L5255.21 3364.8L5102.69 3391.69L5116.69 3471.12L5098.34 3474.36L5080.68 3374.23Z" fill="white"/>
<path d="M5109.49 3613.34V3591.31L5283 3655.02V3676.71L5109.49 3740.42V3718.4L5255.55 3666.54V3665.19L5109.49 3613.34ZM5177.27 3621.47V3710.26H5158.63V3621.47H5177.27Z" fill="white"/>
<path d="M5255.89 3946.37L5085.01 3916.24L5088.66 3895.55L5259.54 3925.68L5255.89 3946.37Z" fill="white"/>
<path d="M5210.76 4136.29L5202.18 4159.85L5046.67 4166L5045.97 4167.91L5161.15 4272.59L5152.57 4296.15L4989.52 4236.81L4996.24 4218.34L5120.12 4263.43L5120.7 4261.83L5015.37 4165.79L5021.86 4147.96L5164.28 4142.09L5164.86 4140.5L5040.98 4095.41L5047.71 4076.94L5210.76 4136.29Z" fill="white"/>
<path d="M4931.9 4370.57L5028.76 4426.49L5019.27 4442.92L4922.42 4387L4931.9 4370.57ZM4995.33 4353.57L5011.76 4363.06L4955.84 4459.92L4939.41 4450.43L4995.33 4353.57Z" fill="white"/>
<path d="M4817.75 4710.4L4831.26 4694.31C4836.68 4697.24 4842.15 4698.99 4847.65 4699.55C4853.12 4700.15 4858.45 4699.77 4863.67 4698.39C4868.88 4697.09 4873.81 4694.92 4878.43 4691.87C4883.05 4688.81 4887.22 4685.08 4890.92 4680.67C4897.67 4672.62 4901.76 4663.62 4903.17 4653.68C4904.55 4643.78 4902.9 4633.58 4898.21 4623.08C4893.49 4612.63 4885.37 4602.57 4873.86 4592.92C4862.35 4583.26 4851.04 4577.01 4839.93 4574.18C4828.78 4571.38 4818.45 4571.53 4808.94 4574.6C4799.39 4577.72 4791.24 4583.31 4784.48 4591.36C4780.78 4595.77 4777.83 4600.52 4775.63 4605.6C4773.42 4610.69 4772.12 4615.89 4771.7 4621.22C4771.29 4626.63 4771.86 4631.97 4773.4 4637.25C4774.95 4642.6 4777.62 4647.68 4781.41 4652.48L4767.91 4668.58C4762.13 4661.67 4757.9 4654.36 4755.22 4646.66C4752.54 4638.95 4751.32 4631.14 4751.55 4623.22C4751.82 4615.34 4753.47 4607.62 4756.5 4600.06C4759.49 4592.54 4763.8 4585.43 4769.43 4578.72C4778.94 4567.39 4790.17 4559.63 4803.11 4555.45C4816.06 4551.27 4829.76 4550.93 4844.22 4554.44C4858.68 4557.94 4872.91 4565.58 4886.93 4577.34C4900.95 4589.1 4910.94 4601.8 4916.91 4615.43C4922.87 4629.06 4924.92 4642.61 4923.05 4656.09C4921.18 4669.56 4915.49 4681.97 4905.98 4693.3C4900.35 4700.01 4894.1 4705.49 4887.21 4709.74C4880.29 4714.03 4872.95 4716.98 4865.19 4718.58C4857.48 4720.22 4849.59 4720.39 4841.54 4719.09C4833.53 4717.82 4825.6 4714.93 4817.75 4710.4Z" fill="white"/>
<path d="M4624.56 4730.78L4736.09 4863.7L4720 4877.2L4620.45 4758.56L4558.66 4810.41L4546.68 4796.13L4624.56 4730.78Z" fill="white"/>
<path d="M4429.35 4875.67L4448.43 4864.66L4480.01 5046.78L4461.22 5057.63L4319.29 4939.21L4338.37 4928.2L4456.3 5028.77L4457.48 5028.09L4429.35 4875.67ZM4456.19 4938.44L4379.3 4982.83L4369.98 4966.69L4446.87 4922.29L4456.19 4938.44Z" fill="white"/>
<path d="M4216.7 5168.57L4157.35 5005.52L4177.1 4998.34L4236.44 5161.39L4216.7 5168.57Z" fill="white"/>
<path d="M4029.66 5224.46L4004.97 5228.81L3921.88 5097.21L3919.88 5097.56L3886.82 5249.65L3862.12 5254L3831.99 5083.12L3851.35 5079.71L3874.24 5209.54L3875.91 5209.24L3906.42 5070L3925.11 5066.7L4001.4 5187.11L4003.07 5186.82L3980.18 5056.99L3999.53 5053.58L4029.66 5224.46Z" fill="white"/>
<defs>
<linearGradient id="paint0_linear_785_303" x1="1672.6" y1="0" x2="1672.6" y2="3345.19" gradientUnits="userSpaceOnUse">
<stop stop-color="#0066FF"/>
<stop offset="1" stop-color="#EA8CFF"/>
</linearGradient>
<linearGradient id="paint1_linear_785_303" x1="1672.6" y1="0" x2="1672.6" y2="3345.19" gradientUnits="userSpaceOnUse">
<stop stop-color="#0066FF"/>
<stop offset="1" stop-color="#EA8CFF"/>
</linearGradient>
<linearGradient id="paint2_linear_785_303" x1="1672.6" y1="0" x2="1672.6" y2="3345.19" gradientUnits="userSpaceOnUse">
<stop stop-color="#0066FF"/>
<stop offset="1" stop-color="#EA8CFF"/>
</linearGradient>
</defs>
</svg>
