<svg width="1341" height="1293" viewBox="0 0 1341 1293" fill="none" xmlns="http://www.w3.org/2000/svg">
<mask id="path-1-inside-1_771_134" fill="white">
<path d="M1253 1248.73L964.188 1162.72L746.389 1292.95L594.422 1292.89L376.49 1162.72L87.8072 1248.73L0 952.203L87.8166 623.101L0 344.859L87.8166 0L538.903 269.58H801.909L1253 0L1340.82 344.859L1253 623.101L1340.82 952.203L1253 1248.73Z"/>
<path d="M87.8733 0L538.969 269.769L521.035 454.909L87.8733 0ZM376.566 952.326L575.043 1103.56L376.566 1162.71V952.326ZM559.178 702.29L521.035 455.041L276.86 623.177L276.728 623.111V623.234L277.483 796.3L376.5 702.3L559.178 702.29ZM1253 0L801.909 269.769L819.785 454.909L1253 0ZM964.321 952.326L765.834 1103.56L964.321 1162.71V952.326ZM1064.09 623.224V623.101L1064.04 623.167L819.852 455.041L781.709 702.29H964.311L1063.39 796.282L1064.09 623.224Z"/>
<path d="M376.5 1162.71L87.8166 1248.72L0 952.326H376.5V1162.71ZM559.112 702.224L614.254 1059.67L537.826 860.923L277.36 796.282L376.434 702.234L559.112 702.224ZM964.311 1162.71L1253 1248.72L1340.82 952.317H964.311C964.311 952.326 964.311 1162.71 964.311 1162.71ZM781.709 702.224L726.567 1059.67L802.985 860.923L1063.47 796.282L964.33 702.234L781.709 702.224Z"/>
<path d="M0 952.203L87.8166 623.101H276.661L277.351 796.225L537.845 860.866L614.263 1059.61L574.977 1103.37L376.5 952.137H0V952.203ZM1340.82 952.203L1253 623.101H1064.15L1063.46 796.225L802.985 860.866L726.558 1059.61L765.834 1103.37L964.321 952.137H1340.82V952.203ZM801.909 269.58H538.903L521.045 454.72L614.272 1059.41H726.567L819.852 454.72L801.909 269.58Z"/>
<path d="M87.8166 0L0 344.859L87.8166 623.101H276.661L520.969 454.918L87.8166 0ZM504.537 774.016H418.987L372.411 819.69L537.902 860.725L504.537 773.95V774.016ZM1253 0L1340.82 344.859L1253 623.101H1064.15L819.852 454.918L1253 0ZM836.406 774.016H922.079L968.655 819.746L802.976 860.866L836.406 773.95V774.016ZM746.323 1174.99L765.843 1103.51L726.558 1059.74H614.178L574.902 1103.51L594.412 1174.99"/>
<path d="M746.323 1174.98V1293.01H594.431V1174.98H746.323Z"/>
<path d="M376.566 1162.58L594.554 1292.94V1174.91L575.034 1103.44L376.566 1162.58ZM964.321 1162.58L746.323 1292.94V1174.91L765.843 1103.44L964.321 1162.58Z"/>
</mask>
<path d="M1253 1248.73L964.188 1162.72L746.389 1292.95L594.422 1292.89L376.49 1162.72L87.8072 1248.73L0 952.203L87.8166 623.101L0 344.859L87.8166 0L538.903 269.58H801.909L1253 0L1340.82 344.859L1253 623.101L1340.82 952.203L1253 1248.73Z" fill="url(#paint0_linear_771_134)"/>
<path d="M87.8733 0L538.969 269.769L521.035 454.909L87.8733 0ZM376.566 952.326L575.043 1103.56L376.566 1162.71V952.326ZM559.178 702.29L521.035 455.041L276.86 623.177L276.728 623.111V623.234L277.483 796.3L376.5 702.3L559.178 702.29ZM1253 0L801.909 269.769L819.785 454.909L1253 0ZM964.321 952.326L765.834 1103.56L964.321 1162.71V952.326ZM1064.09 623.224V623.101L1064.04 623.167L819.852 455.041L781.709 702.29H964.311L1063.39 796.282L1064.09 623.224Z" fill="url(#paint1_linear_771_134)"/>
<path d="M746.323 1174.98V1293.01H594.431V1174.98H746.323Z" fill="url(#paint2_linear_771_134)"/>
<path d="M376.566 1162.58L594.554 1292.94V1174.91L575.034 1103.44L376.566 1162.58ZM964.321 1162.58L746.323 1292.94V1174.91L765.843 1103.44L964.321 1162.58Z" fill="url(#paint3_linear_771_134)"/>
<path d="M0 344.859L-0.484537 344.735L-0.519687 344.873L-0.476816 345.009L0 344.859ZM1340.82 344.859L1341.3 345.009L1341.34 344.873L1341.31 344.735L1340.82 344.859ZM0 952.203L0.483097 952.332L88.2997 623.23L87.8166 623.101L87.3335 622.972L-0.483097 952.074L0 952.203ZM87.8166 623.101L88.2934 622.951L0.476816 344.708L0 344.859L-0.476816 345.009L87.3398 623.252L87.8166 623.101ZM0 344.859L0.484537 344.982L88.3011 0.123385L87.8166 0L87.3321 -0.123385L-0.484537 344.735L0 344.859ZM538.903 269.58V270.08H801.909V269.58V269.08H538.903V269.58ZM1253 0L1252.52 0.123385L1340.34 344.982L1340.82 344.859L1341.31 344.735L1253.49 -0.123385L1253 0ZM1340.82 344.859L1340.34 344.708L1252.53 622.951L1253 623.101L1253.48 623.252L1341.3 345.009L1340.82 344.859ZM1253 623.101L1252.52 623.23L1340.34 952.332L1340.82 952.203L1341.3 952.074L1253.49 622.972L1253 623.101ZM1064.09 623.224V623.724H1064.16V623.224V622.724H1064.09V623.224ZM87.8166 623.101V623.601H276.661V623.101V622.601H87.8166V623.101ZM1253 623.101V622.601H1064.15V623.101V623.601H1253V623.101ZM1253 1248.73L1252.72 1249.69L1253.68 1249.98L1253.96 1249.02L1253 1248.73ZM964.188 1162.72L964.474 1161.76L964.053 1161.63L963.675 1161.86L964.188 1162.72ZM746.389 1292.95L746.389 1293.95L746.665 1293.95L746.902 1293.81L746.389 1292.95ZM594.422 1292.89L593.909 1293.75L594.146 1293.89L594.421 1293.89L594.422 1292.89ZM376.49 1162.72L377.003 1161.86L376.626 1161.63L376.205 1161.76L376.49 1162.72ZM87.8072 1248.73L86.8483 1249.02L87.1327 1249.98L88.0927 1249.69L87.8072 1248.73ZM0 952.203H-1V952.348L-0.958846 952.487L0 952.203ZM87.8166 0L88.3296 -0.858391L87.0924 0.689569L87.8166 0ZM538.903 269.58L539.898 269.676L539.959 269.047L539.416 268.722L538.903 269.58ZM801.909 269.58L801.396 268.722L800.852 269.047L800.913 269.677L801.909 269.58ZM1253 0L1253.73 0.689569L1252.49 -0.858396L1253 0ZM1340.82 952.203L1341.78 952.487L1341.82 952.348V952.203H1340.82ZM87.8733 0L88.3865 -0.858237L87.1491 0.689585L87.8733 0ZM538.969 269.769L539.964 269.866L540.025 269.236L539.482 268.911L538.969 269.769ZM521.035 454.909L520.311 455.598L521.82 457.183L522.03 455.005L521.035 454.909ZM376.566 952.326L377.172 951.531L375.566 950.307V952.326H376.566ZM575.043 1103.56L575.329 1104.52L577.214 1103.96L575.65 1102.77L575.043 1103.56ZM376.566 1162.71H375.566V1164.05L376.852 1163.66L376.566 1162.71ZM559.178 702.29L559.178 703.29L560.344 703.29L560.166 702.138L559.178 702.29ZM521.035 455.041L522.023 454.889L521.781 453.314L520.468 454.217L521.035 455.041ZM276.86 623.177L276.412 624.071L276.941 624.336L277.427 624.001L276.86 623.177ZM276.728 623.111L277.175 622.216L275.728 621.492V623.111H276.728ZM276.728 623.234H275.728L275.728 623.238L276.728 623.234ZM277.483 796.3L276.483 796.305L276.493 798.619L278.172 797.026L277.483 796.3ZM376.5 702.3L376.5 701.3L376.101 701.3L375.811 701.574L376.5 702.3ZM801.909 269.769L801.395 268.911L800.852 269.236L800.913 269.865L801.909 269.769ZM819.785 454.909L818.79 455.005L819 457.183L820.51 455.598L819.785 454.909ZM964.321 952.326H965.321V950.307L963.715 951.531L964.321 952.326ZM765.834 1103.56L765.228 1102.77L763.663 1103.96L765.548 1104.52L765.834 1103.56ZM964.321 1162.71L964.035 1163.66L965.321 1164.05V1162.71H964.321ZM1064.09 623.224L1065.09 623.228V623.224H1064.09ZM1064.09 623.101H1065.09V620.396L1063.33 622.451L1064.09 623.101ZM1064.04 623.167L1063.47 623.991L1064.21 624.502L1064.8 623.818L1064.04 623.167ZM819.852 455.041L820.419 454.217L819.106 453.314L818.863 454.889L819.852 455.041ZM781.709 702.29L780.72 702.138L780.542 703.29H781.709V702.29ZM964.311 702.29L964.999 701.565L964.71 701.29H964.311V702.29ZM1063.39 796.282L1062.71 797.007L1064.38 798.6L1064.39 796.286L1063.39 796.282ZM376.5 1162.71L376.785 1163.66L377.5 1163.45V1162.71H376.5ZM87.8166 1248.72L86.8578 1249.01L87.1423 1249.97L88.1022 1249.68L87.8166 1248.72ZM0 952.326V951.326H-1.33925L-0.958803 952.61L0 952.326ZM376.5 952.326H377.5V951.326H376.5V952.326ZM559.112 702.224L560.1 702.072L559.97 701.224L559.112 701.224L559.112 702.224ZM614.254 1059.67L613.32 1060.03L615.242 1059.52L614.254 1059.67ZM537.826 860.923L538.759 860.564L538.572 860.078L538.067 859.952L537.826 860.923ZM277.36 796.282L276.672 795.556L275.348 796.813L277.119 797.252L277.36 796.282ZM376.434 702.234L376.434 701.234L376.035 701.234L375.745 701.508L376.434 702.234ZM964.311 1162.71H963.311V1163.45L964.026 1163.66L964.311 1162.71ZM1253 1248.72L1252.72 1249.68L1253.68 1249.97L1253.96 1249.01L1253 1248.72ZM1340.82 952.317L1341.78 952.601L1342.16 951.317H1340.82V952.317ZM964.311 952.317V951.317H963.311V952.317H964.311ZM781.709 702.224L781.709 701.224L780.851 701.224L780.72 702.072L781.709 702.224ZM726.567 1059.67L725.579 1059.52L727.5 1060.03L726.567 1059.67ZM802.985 860.923L802.744 859.952L802.239 860.078L802.052 860.564L802.985 860.923ZM1063.47 796.282L1063.71 797.252L1065.48 796.812L1064.16 795.556L1063.47 796.282ZM964.33 702.234L965.018 701.508L964.729 701.234L964.33 701.234L964.33 702.234ZM276.661 623.101L276.094 622.278L275.659 622.577L275.662 623.105L276.661 623.101ZM277.351 796.225L276.351 796.229L276.354 797.008L277.11 797.195L277.351 796.225ZM537.845 860.866L538.778 860.508L538.591 860.021L538.086 859.896L537.845 860.866ZM614.263 1059.61L615.007 1060.28L615.416 1059.82L615.196 1059.25L614.263 1059.61ZM574.977 1103.37L574.371 1104.17L575.105 1104.73L575.722 1104.04L574.977 1103.37ZM376.5 952.137L377.106 951.342L376.837 951.137H376.5V952.137ZM0 952.137V951.137H-1V952.137H0ZM1064.15 623.101L1065.15 623.105L1065.15 622.577L1064.72 622.278L1064.15 623.101ZM1063.46 796.225L1063.7 797.195L1064.46 797.008L1064.46 796.229L1063.46 796.225ZM802.985 860.866L802.744 859.896L802.239 860.021L802.052 860.508L802.985 860.866ZM726.558 1059.61L725.624 1059.25L725.404 1059.82L725.813 1060.28L726.558 1059.61ZM765.834 1103.37L765.089 1104.04L765.706 1104.73L766.44 1104.17L765.834 1103.37ZM964.321 952.137V951.137H963.983L963.715 951.342L964.321 952.137ZM1340.82 952.137H1341.82V951.137H1340.82V952.137ZM521.045 454.72L520.049 454.624L520.037 454.748L520.056 454.872L521.045 454.72ZM614.272 1059.41L613.284 1059.56L613.415 1060.41H614.272V1059.41ZM726.567 1059.41V1060.41H727.425L727.555 1059.56L726.567 1059.41ZM819.852 454.72L820.84 454.872L820.859 454.748L820.847 454.623L819.852 454.72ZM520.969 454.918L521.536 455.742L522.501 455.077L521.693 454.229L520.969 454.918ZM504.537 774.016V775.016H505.537V774.016H504.537ZM418.987 774.016V773.016H418.578L418.287 773.302L418.987 774.016ZM372.411 819.69L371.711 818.976L370.432 820.229L372.17 820.66L372.411 819.69ZM537.902 860.725L537.661 861.695L539.524 862.157L538.835 860.366L537.902 860.725ZM504.537 773.95L505.47 773.591L503.537 773.95H504.537ZM819.852 454.918L819.127 454.229L818.319 455.077L819.284 455.742L819.852 454.918ZM836.406 774.016H835.406V775.016H836.406V774.016ZM922.079 774.016L922.78 773.303L922.488 773.016H922.079V774.016ZM968.655 819.746L968.896 820.717L970.632 820.286L969.356 819.033L968.655 819.746ZM802.976 860.866L802.042 860.507L801.353 862.299L803.217 861.837L802.976 860.866ZM836.406 773.95H837.406L835.473 773.591L836.406 773.95ZM765.843 1103.51L766.808 1103.77L766.951 1103.24L766.587 1102.84L765.843 1103.51ZM726.558 1059.74L727.302 1059.07L727.004 1058.74H726.558V1059.74ZM614.178 1059.74V1058.74H613.732L613.434 1059.07L614.178 1059.74ZM574.902 1103.51L574.158 1102.84L573.794 1103.24L573.937 1103.77L574.902 1103.51ZM746.323 1174.98H747.323V1173.98H746.323V1174.98ZM746.323 1293.01V1294.01H747.323V1293.01H746.323ZM594.431 1293.01H593.431V1294.01H594.431V1293.01ZM594.431 1174.98V1173.98H593.431V1174.98H594.431ZM376.566 1162.58L376.28 1161.63L374.101 1162.27L376.053 1163.44L376.566 1162.58ZM594.554 1292.94L594.041 1293.8L595.554 1294.71V1292.94H594.554ZM594.554 1174.91H595.554V1174.78L595.519 1174.65L594.554 1174.91ZM575.034 1103.44L575.999 1103.18L575.729 1102.19L574.748 1102.48L575.034 1103.44ZM964.321 1162.58L964.834 1163.44L966.786 1162.27L964.606 1161.63L964.321 1162.58ZM746.323 1292.94H745.323V1294.71L746.836 1293.8L746.323 1292.94ZM746.323 1174.91L745.359 1174.65L745.323 1174.78V1174.91H746.323ZM765.843 1103.44L766.129 1102.48L765.148 1102.19L764.879 1103.18L765.843 1103.44ZM1253 1248.73L1253.29 1247.78L964.474 1161.76L964.188 1162.72L963.903 1163.67L1252.72 1249.69L1253 1248.73ZM964.188 1162.72L963.675 1161.86L745.876 1292.09L746.389 1292.95L746.902 1293.81L964.702 1163.57L964.188 1162.72ZM746.389 1292.95L746.39 1291.95L594.422 1291.89L594.422 1292.89L594.421 1293.89L746.389 1293.95L746.389 1292.95ZM594.422 1292.89L594.935 1292.03L377.003 1161.86L376.49 1162.72L375.978 1163.57L593.909 1293.75L594.422 1292.89ZM376.49 1162.72L376.205 1161.76L87.5216 1247.78L87.8072 1248.73L88.0927 1249.69L376.776 1163.67L376.49 1162.72ZM87.8072 1248.73L88.766 1248.45L0.958846 951.919L0 952.203L-0.958846 952.487L86.8483 1249.02L87.8072 1248.73ZM87.8166 0L87.3036 0.858391L538.39 270.439L538.903 269.58L539.416 268.722L88.3296 -0.858391L87.8166 0ZM801.909 269.58L802.422 270.439L1253.52 0.858396L1253 0L1252.49 -0.858396L801.396 268.722L801.909 269.58ZM1340.82 952.203L1339.86 951.919L1252.05 1248.45L1253 1248.73L1253.96 1249.02L1341.78 952.487L1340.82 952.203ZM87.8733 0L87.36 0.858237L538.455 270.628L538.969 269.769L539.482 268.911L88.3865 -0.858237L87.8733 0ZM538.969 269.769L537.973 269.673L520.04 454.812L521.035 454.909L522.03 455.005L539.964 269.866L538.969 269.769ZM521.035 454.909L521.759 454.219L88.5975 -0.689585L87.8733 0L87.1491 0.689585L520.311 455.598L521.035 454.909ZM376.566 952.326L375.96 953.122L574.437 1104.36L575.043 1103.56L575.65 1102.77L377.172 951.531L376.566 952.326ZM575.043 1103.56L574.758 1102.6L376.28 1161.75L376.566 1162.71L376.852 1163.66L575.329 1104.52L575.043 1103.56ZM376.566 1162.71H377.566V952.326H376.566H375.566V1162.71H376.566ZM559.178 702.29L560.166 702.138L522.023 454.889L521.035 455.041L520.047 455.193L558.19 702.443L559.178 702.29ZM521.035 455.041L520.468 454.217L276.293 622.353L276.86 623.177L277.427 624.001L521.602 455.865L521.035 455.041ZM276.86 623.177L277.307 622.283L277.175 622.216L276.728 623.111L276.28 624.005L276.412 624.071L276.86 623.177ZM276.728 623.111H275.728V623.234H276.728H277.728V623.111H276.728ZM276.728 623.234L275.728 623.238L276.483 796.305L277.483 796.3L278.483 796.296L277.728 623.229L276.728 623.234ZM277.483 796.3L278.172 797.026L377.188 703.025L376.5 702.3L375.811 701.574L276.795 795.575L277.483 796.3ZM376.5 702.3L376.5 703.3L559.178 703.29L559.178 702.29L559.178 701.29L376.5 701.3L376.5 702.3ZM1253 0L1252.49 -0.858237L801.395 268.911L801.909 269.769L802.422 270.628L1253.52 0.858237L1253 0ZM801.909 269.769L800.913 269.865L818.79 455.005L819.785 454.909L820.781 454.813L802.904 269.673L801.909 269.769ZM819.785 454.909L820.51 455.598L1253.73 0.689632L1253 0L1252.28 -0.689632L819.061 454.219L819.785 454.909ZM964.321 952.326L963.715 951.531L765.228 1102.77L765.834 1103.56L766.44 1104.36L964.927 953.122L964.321 952.326ZM765.834 1103.56L765.548 1104.52L964.035 1163.66L964.321 1162.71L964.606 1161.75L766.119 1102.6L765.834 1103.56ZM964.321 1162.71H965.321V952.326H964.321H963.321V1162.71H964.321ZM1064.09 623.224H1065.09V623.101H1064.09H1063.09V623.224H1064.09ZM1064.09 623.101L1063.33 622.451L1063.28 622.517L1064.04 623.167L1064.8 623.818L1064.85 623.752L1064.09 623.101ZM1064.04 623.167L1064.6 622.344L820.419 454.217L819.852 455.041L819.284 455.865L1063.47 623.991L1064.04 623.167ZM819.852 455.041L818.863 454.889L780.72 702.138L781.709 702.29L782.697 702.443L820.84 455.193L819.852 455.041ZM781.709 702.29V703.29H964.311V702.29V701.29H781.709V702.29ZM964.311 702.29L963.623 703.016L1062.71 797.007L1063.39 796.282L1064.08 795.556L964.999 701.565L964.311 702.29ZM1063.39 796.282L1064.39 796.286L1065.09 623.228L1064.09 623.224L1063.09 623.22L1062.39 796.278L1063.39 796.282ZM376.5 1162.71L376.214 1161.75L87.531 1247.77L87.8166 1248.72L88.1022 1249.68L376.785 1163.66L376.5 1162.71ZM87.8166 1248.72L88.7754 1248.44L0.958803 952.042L0 952.326L-0.958803 952.61L86.8578 1249.01L87.8166 1248.72ZM0 952.326V953.326H376.5V952.326V951.326H0V952.326ZM376.5 952.326H375.5V1162.71H376.5H377.5V952.326H376.5ZM559.112 702.224L558.124 702.377L613.265 1059.83L614.254 1059.67L615.242 1059.52L560.1 702.072L559.112 702.224ZM614.254 1059.67L615.187 1059.32L538.759 860.564L537.826 860.923L536.893 861.282L613.32 1060.03L614.254 1059.67ZM537.826 860.923L538.067 859.952L277.601 795.311L277.36 796.282L277.119 797.252L537.585 861.894L537.826 860.923ZM277.36 796.282L278.049 797.007L377.122 702.959L376.434 702.234L375.745 701.508L276.672 795.556L277.36 796.282ZM376.434 702.234L376.434 703.234L559.112 703.224L559.112 702.224L559.112 701.224L376.434 701.234L376.434 702.234ZM964.311 1162.71L964.026 1163.66L1252.72 1249.68L1253 1248.72L1253.29 1247.77L964.597 1161.75L964.311 1162.71ZM1253 1248.72L1253.96 1249.01L1341.78 952.601L1340.82 952.317L1339.86 952.033L1252.05 1248.44L1253 1248.72ZM1340.82 952.317V951.317H964.311V952.317V953.317H1340.82V952.317ZM964.311 952.317H963.311C963.311 952.317 963.311 952.318 963.311 952.319C963.311 952.321 963.311 952.323 963.311 952.326C963.311 952.33 963.311 952.334 963.311 952.338C963.311 952.343 963.311 952.349 963.311 952.355C963.311 952.362 963.311 952.369 963.311 952.377C963.311 952.385 963.311 952.394 963.311 952.403C963.311 952.413 963.311 952.423 963.311 952.434C963.311 952.445 963.311 952.457 963.311 952.47C963.311 952.482 963.311 952.496 963.311 952.51C963.311 952.524 963.311 952.539 963.311 952.555C963.311 952.571 963.311 952.587 963.311 952.604C963.311 952.622 963.311 952.64 963.311 952.659C963.311 952.677 963.311 952.697 963.311 952.717C963.311 952.738 963.311 952.759 963.311 952.781C963.311 952.803 963.311 952.825 963.311 952.849C963.311 952.872 963.311 952.896 963.311 952.921C963.311 952.946 963.311 952.972 963.311 952.998C963.311 953.024 963.311 953.052 963.311 953.079C963.311 953.107 963.311 953.136 963.311 953.165C963.311 953.195 963.311 953.225 963.311 953.256C963.311 953.287 963.311 953.318 963.311 953.351C963.311 953.383 963.311 953.416 963.311 953.45C963.311 953.484 963.311 953.518 963.311 953.553C963.311 953.589 963.311 953.625 963.311 953.661C963.311 953.698 963.311 953.736 963.311 953.774C963.311 953.812 963.311 953.851 963.311 953.891C963.311 953.93 963.311 953.971 963.311 954.012C963.311 954.053 963.311 954.094 963.311 954.137C963.311 954.179 963.311 954.223 963.311 954.267C963.311 954.31 963.311 954.355 963.311 954.4C963.311 954.446 963.311 954.492 963.311 954.539C963.311 954.585 963.311 954.633 963.311 954.681C963.311 954.729 963.311 954.778 963.311 954.828C963.311 954.877 963.311 954.927 963.311 954.978C963.311 955.029 963.311 955.081 963.311 955.133C963.311 955.186 963.311 955.239 963.311 955.293C963.311 955.346 963.311 955.401 963.311 955.456C963.311 955.511 963.311 955.567 963.311 955.623C963.311 955.68 963.311 955.737 963.311 955.795C963.311 955.853 963.311 955.911 963.311 955.97C963.311 956.029 963.311 956.089 963.311 956.15C963.311 956.21 963.311 956.272 963.311 956.334C963.311 956.396 963.311 956.458 963.311 956.521C963.311 956.585 963.311 956.648 963.311 956.713C963.311 956.778 963.311 956.843 963.311 956.909C963.311 956.975 963.311 957.041 963.311 957.108C963.311 957.176 963.311 957.243 963.311 957.312C963.311 957.381 963.311 957.45 963.311 957.52C963.311 957.589 963.311 957.66 963.311 957.731C963.311 957.802 963.311 957.874 963.311 957.946C963.311 958.019 963.311 958.092 963.311 958.166C963.311 958.239 963.311 958.314 963.311 958.389C963.311 958.464 963.311 958.539 963.311 958.616C963.311 958.692 963.311 958.769 963.311 958.846C963.311 958.924 963.311 959.002 963.311 959.081C963.311 959.16 963.311 959.239 963.311 959.319C963.311 959.399 963.311 959.48 963.311 959.561C963.311 959.643 963.311 959.725 963.311 959.807C963.311 959.89 963.311 959.973 963.311 960.057C963.311 960.14 963.311 960.225 963.311 960.31C963.311 960.395 963.311 960.481 963.311 960.567C963.311 960.653 963.311 960.74 963.311 960.827C963.311 960.915 963.311 961.003 963.311 961.092C963.311 961.18 963.311 961.27 963.311 961.36C963.311 961.449 963.311 961.54 963.311 961.631C963.311 961.722 963.311 961.814 963.311 961.906C963.311 961.998 963.311 962.091 963.311 962.185C963.311 962.278 963.311 962.372 963.311 962.467C963.311 962.562 963.311 962.657 963.311 962.753C963.311 962.849 963.311 962.945 963.311 963.042C963.311 963.139 963.311 963.237 963.311 963.335C963.311 963.433 963.311 963.532 963.311 963.631C963.311 963.73 963.311 963.83 963.311 963.931C963.311 964.031 963.311 964.132 963.311 964.234C963.311 964.336 963.311 964.438 963.311 964.541C963.311 964.643 963.311 964.747 963.311 964.851C963.311 964.954 963.311 965.059 963.311 965.164C963.311 965.269 963.311 965.374 963.311 965.481C963.311 965.587 963.311 965.693 963.311 965.801C963.311 965.908 963.311 966.016 963.311 966.124C963.311 966.232 963.311 966.341 963.311 966.451C963.311 966.56 963.311 966.67 963.311 966.781C963.311 966.891 963.311 967.002 963.311 967.114C963.311 967.226 963.311 967.338 963.311 967.451C963.311 967.563 963.311 967.677 963.311 967.79C963.311 967.904 963.311 968.019 963.311 968.133C963.311 968.248 963.311 968.364 963.311 968.48C963.311 968.596 963.311 968.712 963.311 968.829C963.311 968.946 963.311 969.063 963.311 969.181C963.311 969.3 963.311 969.418 963.311 969.537C963.311 969.656 963.311 969.776 963.311 969.896C963.311 970.016 963.311 970.137 963.311 970.258C963.311 970.379 963.311 970.501 963.311 970.623C963.311 970.745 963.311 970.868 963.311 970.991C963.311 971.114 963.311 971.238 963.311 971.362C963.311 971.486 963.311 971.611 963.311 971.736C963.311 971.861 963.311 971.987 963.311 972.113C963.311 972.239 963.311 972.366 963.311 972.493C963.311 972.62 963.311 972.748 963.311 972.876C963.311 973.005 963.311 973.133 963.311 973.262C963.311 973.392 963.311 973.521 963.311 973.651C963.311 973.782 963.311 973.912 963.311 974.043C963.311 974.174 963.311 974.306 963.311 974.438C963.311 974.57 963.311 974.703 963.311 974.836C963.311 974.969 963.311 975.102 963.311 975.236C963.311 975.37 963.311 975.505 963.311 975.64C963.311 975.775 963.311 975.91 963.311 976.046C963.311 976.182 963.311 976.318 963.311 976.455C963.311 976.592 963.311 976.729 963.311 976.867C963.311 977.004 963.311 977.142 963.311 977.281C963.311 977.42 963.311 977.559 963.311 977.698C963.311 977.838 963.311 977.978 963.311 978.118C963.311 978.259 963.311 978.4 963.311 978.541C963.311 978.682 963.311 978.824 963.311 978.966C963.311 979.109 963.311 979.251 963.311 979.395C963.311 979.538 963.311 979.681 963.311 979.825C963.311 979.969 963.311 980.114 963.311 980.259C963.311 980.404 963.311 980.549 963.311 980.695C963.311 980.84 963.311 980.987 963.311 981.133C963.311 981.28 963.311 981.427 963.311 981.574C963.311 981.722 963.311 981.87 963.311 982.018C963.311 982.166 963.311 982.315 963.311 982.464C963.311 982.613 963.311 982.763 963.311 982.913C963.311 983.063 963.311 983.214 963.311 983.364C963.311 983.515 963.311 983.666 963.311 983.818C963.311 983.97 963.311 984.122 963.311 984.274C963.311 984.427 963.311 984.58 963.311 984.733C963.311 984.886 963.311 985.04 963.311 985.194C963.311 985.348 963.311 985.503 963.311 985.658C963.311 985.812 963.311 985.968 963.311 986.123C963.311 986.279 963.311 986.435 963.311 986.592C963.311 986.748 963.311 986.905 963.311 987.062C963.311 987.22 963.311 987.377 963.311 987.535C963.311 987.693 963.311 987.852 963.311 988.01C963.311 988.169 963.311 988.328 963.311 988.488C963.311 988.648 963.311 988.808 963.311 988.968C963.311 989.128 963.311 989.289 963.311 989.45C963.311 989.611 963.311 989.772 963.311 989.934C963.311 990.096 963.311 990.258 963.311 990.421C963.311 990.583 963.311 990.746 963.311 990.909C963.311 991.073 963.311 991.236 963.311 991.4C963.311 991.564 963.311 991.729 963.311 991.893C963.311 992.058 963.311 992.223 963.311 992.389C963.311 992.554 963.311 992.72 963.311 992.886C963.311 993.052 963.311 993.219 963.311 993.385C963.311 993.552 963.311 993.72 963.311 993.887C963.311 994.055 963.311 994.222 963.311 994.391C963.311 994.559 963.311 994.727 963.311 994.896C963.311 995.065 963.311 995.234 963.311 995.404C963.311 995.574 963.311 995.743 963.311 995.914C963.311 996.084 963.311 996.254 963.311 996.425C963.311 996.596 963.311 996.768 963.311 996.939C963.311 997.111 963.311 997.282 963.311 997.455C963.311 997.627 963.311 997.799 963.311 997.972C963.311 998.145 963.311 998.318 963.311 998.492C963.311 998.665 963.311 998.839 963.311 999.013C963.311 999.187 963.311 999.362 963.311 999.536C963.311 999.711 963.311 999.886 963.311 1000.06C963.311 1000.24 963.311 1000.41 963.311 1000.59C963.311 1000.76 963.311 1000.94 963.311 1001.12C963.311 1001.29 963.311 1001.47 963.311 1001.65C963.311 1001.83 963.311 1002 963.311 1002.18C963.311 1002.36 963.311 1002.54 963.311 1002.71C963.311 1002.89 963.311 1003.07 963.311 1003.25C963.311 1003.43 963.311 1003.61 963.311 1003.79C963.311 1003.97 963.311 1004.15 963.311 1004.33C963.311 1004.51 963.311 1004.69 963.311 1004.87C963.311 1005.05 963.311 1005.23 963.311 1005.41C963.311 1005.59 963.311 1005.77 963.311 1005.96C963.311 1006.14 963.311 1006.32 963.311 1006.5C963.311 1006.68 963.311 1006.87 963.311 1007.05C963.311 1007.23 963.311 1007.41 963.311 1007.6C963.311 1007.78 963.311 1007.97 963.311 1008.15C963.311 1008.33 963.311 1008.52 963.311 1008.7C963.311 1008.89 963.311 1009.07 963.311 1009.26C963.311 1009.44 963.311 1009.63 963.311 1009.81C963.311 1010 963.311 1010.18 963.311 1010.37C963.311 1010.55 963.311 1010.74 963.311 1010.93C963.311 1011.11 963.311 1011.3 963.311 1011.49C963.311 1011.67 963.311 1011.86 963.311 1012.05C963.311 1012.23 963.311 1012.42 963.311 1012.61C963.311 1012.8 963.311 1012.99 963.311 1013.17C963.311 1013.36 963.311 1013.55 963.311 1013.74C963.311 1013.93 963.311 1014.12 963.311 1014.31C963.311 1014.5 963.311 1014.69 963.311 1014.88C963.311 1015.06 963.311 1015.25 963.311 1015.44C963.311 1015.63 963.311 1015.83 963.311 1016.02C963.311 1016.21 963.311 1016.4 963.311 1016.59C963.311 1016.78 963.311 1016.97 963.311 1017.16C963.311 1017.35 963.311 1017.54 963.311 1017.74C963.311 1017.93 963.311 1018.12 963.311 1018.31C963.311 1018.5 963.311 1018.7 963.311 1018.89C963.311 1019.08 963.311 1019.27 963.311 1019.47C963.311 1019.66 963.311 1019.85 963.311 1020.05C963.311 1020.24 963.311 1020.43 963.311 1020.63C963.311 1020.82 963.311 1021.02 963.311 1021.21C963.311 1021.4 963.311 1021.6 963.311 1021.79C963.311 1021.99 963.311 1022.18 963.311 1022.38C963.311 1022.57 963.311 1022.77 963.311 1022.96C963.311 1023.16 963.311 1023.35 963.311 1023.55C963.311 1023.74 963.311 1023.94 963.311 1024.14C963.311 1024.33 963.311 1024.53 963.311 1024.72C963.311 1024.92 963.311 1025.12 963.311 1025.31C963.311 1025.51 963.311 1025.71 963.311 1025.9C963.311 1026.1 963.311 1026.3 963.311 1026.5C963.311 1026.69 963.311 1026.89 963.311 1027.09C963.311 1027.29 963.311 1027.48 963.311 1027.68C963.311 1027.88 963.311 1028.08 963.311 1028.28C963.311 1028.47 963.311 1028.67 963.311 1028.87C963.311 1029.07 963.311 1029.27 963.311 1029.47C963.311 1029.67 963.311 1029.87 963.311 1030.06C963.311 1030.26 963.311 1030.46 963.311 1030.66C963.311 1030.86 963.311 1031.06 963.311 1031.26C963.311 1031.46 963.311 1031.66 963.311 1031.86C963.311 1032.06 963.311 1032.26 963.311 1032.46C963.311 1032.66 963.311 1032.86 963.311 1033.06C963.311 1033.26 963.311 1033.46 963.311 1033.66C963.311 1033.86 963.311 1034.06 963.311 1034.27C963.311 1034.47 963.311 1034.67 963.311 1034.87C963.311 1035.07 963.311 1035.27 963.311 1035.47C963.311 1035.67 963.311 1035.88 963.311 1036.08C963.311 1036.28 963.311 1036.48 963.311 1036.68C963.311 1036.88 963.311 1037.09 963.311 1037.29C963.311 1037.49 963.311 1037.69 963.311 1037.89C963.311 1038.1 963.311 1038.3 963.311 1038.5C963.311 1038.7 963.311 1038.91 963.311 1039.11C963.311 1039.31 963.311 1039.51 963.311 1039.72C963.311 1039.92 963.311 1040.12 963.311 1040.33C963.311 1040.53 963.311 1040.73 963.311 1040.93C963.311 1041.14 963.311 1041.34 963.311 1041.54C963.311 1041.75 963.311 1041.95 963.311 1042.15C963.311 1042.36 963.311 1042.56 963.311 1042.77C963.311 1042.97 963.311 1043.17 963.311 1043.38C963.311 1043.58 963.311 1043.78 963.311 1043.99C963.311 1044.19 963.311 1044.4 963.311 1044.6C963.311 1044.8 963.311 1045.01 963.311 1045.21C963.311 1045.42 963.311 1045.62 963.311 1045.83C963.311 1046.03 963.311 1046.23 963.311 1046.44C963.311 1046.64 963.311 1046.85 963.311 1047.05C963.311 1047.26 963.311 1047.46 963.311 1047.67C963.311 1047.87 963.311 1048.08 963.311 1048.28C963.311 1048.48 963.311 1048.69 963.311 1048.89C963.311 1049.1 963.311 1049.3 963.311 1049.51C963.311 1049.71 963.311 1049.92 963.311 1050.12C963.311 1050.33 963.311 1050.53 963.311 1050.74C963.311 1050.94 963.311 1051.15 963.311 1051.35C963.311 1051.56 963.311 1051.76 963.311 1051.97C963.311 1052.18 963.311 1052.38 963.311 1052.59C963.311 1052.79 963.311 1053 963.311 1053.2C963.311 1053.41 963.311 1053.61 963.311 1053.82C963.311 1054.02 963.311 1054.23 963.311 1054.43C963.311 1054.64 963.311 1054.84 963.311 1055.05C963.311 1055.26 963.311 1055.46 963.311 1055.67C963.311 1055.87 963.311 1056.08 963.311 1056.28C963.311 1056.49 963.311 1056.69 963.311 1056.9C963.311 1057.1 963.311 1057.31 963.311 1057.51C963.311 1057.72 963.311 1057.93 963.311 1058.13C963.311 1058.34 963.311 1058.54 963.311 1058.75C963.311 1058.95 963.311 1059.16 963.311 1059.36C963.311 1059.57 963.311 1059.77 963.311 1059.98C963.311 1060.19 963.311 1060.39 963.311 1060.6C963.311 1060.8 963.311 1061.01 963.311 1061.21C963.311 1061.42 963.311 1061.62 963.311 1061.83C963.311 1062.03 963.311 1062.24 963.311 1062.44C963.311 1062.65 963.311 1062.85 963.311 1063.06C963.311 1063.27 963.311 1063.47 963.311 1063.68C963.311 1063.88 963.311 1064.09 963.311 1064.29C963.311 1064.5 963.311 1064.7 963.311 1064.91C963.311 1065.11 963.311 1065.32 963.311 1065.52C963.311 1065.73 963.311 1065.93 963.311 1066.14C963.311 1066.34 963.311 1066.55 963.311 1066.75C963.311 1066.95 963.311 1067.16 963.311 1067.36C963.311 1067.57 963.311 1067.77 963.311 1067.98C963.311 1068.18 963.311 1068.39 963.311 1068.59C963.311 1068.8 963.311 1069 963.311 1069.2C963.311 1069.41 963.311 1069.61 963.311 1069.82C963.311 1070.02 963.311 1070.23 963.311 1070.43C963.311 1070.63 963.311 1070.84 963.311 1071.04C963.311 1071.25 963.311 1071.45 963.311 1071.65C963.311 1071.86 963.311 1072.06 963.311 1072.26C963.311 1072.47 963.311 1072.67 963.311 1072.88C963.311 1073.08 963.311 1073.28 963.311 1073.49C963.311 1073.69 963.311 1073.89 963.311 1074.1C963.311 1074.3 963.311 1074.5 963.311 1074.7C963.311 1074.91 963.311 1075.11 963.311 1075.31C963.311 1075.52 963.311 1075.72 963.311 1075.92C963.311 1076.12 963.311 1076.33 963.311 1076.53C963.311 1076.73 963.311 1076.93 963.311 1077.14C963.311 1077.34 963.311 1077.54 963.311 1077.74C963.311 1077.94 963.311 1078.15 963.311 1078.35C963.311 1078.55 963.311 1078.75 963.311 1078.95C963.311 1079.15 963.311 1079.36 963.311 1079.56C963.311 1079.76 963.311 1079.96 963.311 1080.16C963.311 1080.36 963.311 1080.56 963.311 1080.76C963.311 1080.97 963.311 1081.17 963.311 1081.37C963.311 1081.57 963.311 1081.77 963.311 1081.97C963.311 1082.17 963.311 1082.37 963.311 1082.57C963.311 1082.77 963.311 1082.97 963.311 1083.17C963.311 1083.37 963.311 1083.57 963.311 1083.77C963.311 1083.97 963.311 1084.17 963.311 1084.37C963.311 1084.57 963.311 1084.77 963.311 1084.97C963.311 1085.16 963.311 1085.36 963.311 1085.56C963.311 1085.76 963.311 1085.96 963.311 1086.16C963.311 1086.36 963.311 1086.56 963.311 1086.75C963.311 1086.95 963.311 1087.15 963.311 1087.35C963.311 1087.55 963.311 1087.74 963.311 1087.94C963.311 1088.14 963.311 1088.34 963.311 1088.53C963.311 1088.73 963.311 1088.93 963.311 1089.12C963.311 1089.32 963.311 1089.52 963.311 1089.72C963.311 1089.91 963.311 1090.11 963.311 1090.3C963.311 1090.5 963.311 1090.7 963.311 1090.89C963.311 1091.09 963.311 1091.28 963.311 1091.48C963.311 1091.68 963.311 1091.87 963.311 1092.07C963.311 1092.26 963.311 1092.46 963.311 1092.65C963.311 1092.85 963.311 1093.04 963.311 1093.24C963.311 1093.43 963.311 1093.63 963.311 1093.82C963.311 1094.01 963.311 1094.21 963.311 1094.4C963.311 1094.6 963.311 1094.79 963.311 1094.98C963.311 1095.18 963.311 1095.37 963.311 1095.56C963.311 1095.75 963.311 1095.95 963.311 1096.14C963.311 1096.33 963.311 1096.53 963.311 1096.72C963.311 1096.91 963.311 1097.1 963.311 1097.29C963.311 1097.49 963.311 1097.68 963.311 1097.87C963.311 1098.06 963.311 1098.25 963.311 1098.44C963.311 1098.63 963.311 1098.82 963.311 1099.01C963.311 1099.2 963.311 1099.39 963.311 1099.58C963.311 1099.77 963.311 1099.96 963.311 1100.15C963.311 1100.34 963.311 1100.53 963.311 1100.72C963.311 1100.91 963.311 1101.1 963.311 1101.29C963.311 1101.48 963.311 1101.67 963.311 1101.86C963.311 1102.04 963.311 1102.23 963.311 1102.42C963.311 1102.61 963.311 1102.79 963.311 1102.98C963.311 1103.17 963.311 1103.36 963.311 1103.54C963.311 1103.73 963.311 1103.92 963.311 1104.1C963.311 1104.29 963.311 1104.48 963.311 1104.66C963.311 1104.85 963.311 1105.03 963.311 1105.22C963.311 1105.4 963.311 1105.59 963.311 1105.77C963.311 1105.96 963.311 1106.14 963.311 1106.33C963.311 1106.51 963.311 1106.7 963.311 1106.88C963.311 1107.06 963.311 1107.25 963.311 1107.43C963.311 1107.61 963.311 1107.8 963.311 1107.98C963.311 1108.16 963.311 1108.35 963.311 1108.53C963.311 1108.71 963.311 1108.89 963.311 1109.07C963.311 1109.26 963.311 1109.44 963.311 1109.62C963.311 1109.8 963.311 1109.98 963.311 1110.16C963.311 1110.34 963.311 1110.52 963.311 1110.7C963.311 1110.88 963.311 1111.06 963.311 1111.24C963.311 1111.42 963.311 1111.6 963.311 1111.78C963.311 1111.96 963.311 1112.14 963.311 1112.31C963.311 1112.49 963.311 1112.67 963.311 1112.85C963.311 1113.03 963.311 1113.2 963.311 1113.38C963.311 1113.56 963.311 1113.74 963.311 1113.91C963.311 1114.09 963.311 1114.26 963.311 1114.44C963.311 1114.62 963.311 1114.79 963.311 1114.97C963.311 1115.14 963.311 1115.32 963.311 1115.49C963.311 1115.67 963.311 1115.84 963.311 1116.02C963.311 1116.19 963.311 1116.36 963.311 1116.54C963.311 1116.71 963.311 1116.88 963.311 1117.06C963.311 1117.23 963.311 1117.4 963.311 1117.57C963.311 1117.75 963.311 1117.92 963.311 1118.09C963.311 1118.26 963.311 1118.43 963.311 1118.6C963.311 1118.77 963.311 1118.94 963.311 1119.12C963.311 1119.29 963.311 1119.46 963.311 1119.62C963.311 1119.79 963.311 1119.96 963.311 1120.13C963.311 1120.3 963.311 1120.47 963.311 1120.64C963.311 1120.81 963.311 1120.97 963.311 1121.14C963.311 1121.31 963.311 1121.48 963.311 1121.64C963.311 1121.81 963.311 1121.98 963.311 1122.14C963.311 1122.31 963.311 1122.47 963.311 1122.64C963.311 1122.81 963.311 1122.97 963.311 1123.14C963.311 1123.3 963.311 1123.46 963.311 1123.63C963.311 1123.79 963.311 1123.96 963.311 1124.12C963.311 1124.28 963.311 1124.45 963.311 1124.61C963.311 1124.77 963.311 1124.93 963.311 1125.09C963.311 1125.26 963.311 1125.42 963.311 1125.58C963.311 1125.74 963.311 1125.9 963.311 1126.06C963.311 1126.22 963.311 1126.38 963.311 1126.54C963.311 1126.7 963.311 1126.86 963.311 1127.02C963.311 1127.18 963.311 1127.34 963.311 1127.49C963.311 1127.65 963.311 1127.81 963.311 1127.97C963.311 1128.12 963.311 1128.28 963.311 1128.44C963.311 1128.59 963.311 1128.75 963.311 1128.9C963.311 1129.06 963.311 1129.22 963.311 1129.37C963.311 1129.53 963.311 1129.68 963.311 1129.83C963.311 1129.99 963.311 1130.14 963.311 1130.3C963.311 1130.45 963.311 1130.6 963.311 1130.75C963.311 1130.91 963.311 1131.06 963.311 1131.21C963.311 1131.36 963.311 1131.51 963.311 1131.66C963.311 1131.81 963.311 1131.96 963.311 1132.11C963.311 1132.26 963.311 1132.41 963.311 1132.56C963.311 1132.71 963.311 1132.86 963.311 1133.01C963.311 1133.16 963.311 1133.31 963.311 1133.45C963.311 1133.6 963.311 1133.75 963.311 1133.89C963.311 1134.04 963.311 1134.19 963.311 1134.33C963.311 1134.48 963.311 1134.62 963.311 1134.77C963.311 1134.91 963.311 1135.06 963.311 1135.2C963.311 1135.35 963.311 1135.49 963.311 1135.63C963.311 1135.78 963.311 1135.92 963.311 1136.06C963.311 1136.2 963.311 1136.35 963.311 1136.49C963.311 1136.63 963.311 1136.77 963.311 1136.91C963.311 1137.05 963.311 1137.19 963.311 1137.33C963.311 1137.47 963.311 1137.61 963.311 1137.75C963.311 1137.89 963.311 1138.02 963.311 1138.16C963.311 1138.3 963.311 1138.44 963.311 1138.57C963.311 1138.71 963.311 1138.85 963.311 1138.98C963.311 1139.12 963.311 1139.25 963.311 1139.39C963.311 1139.52 963.311 1139.66 963.311 1139.79C963.311 1139.93 963.311 1140.06 963.311 1140.19C963.311 1140.32 963.311 1140.46 963.311 1140.59C963.311 1140.72 963.311 1140.85 963.311 1140.98C963.311 1141.12 963.311 1141.25 963.311 1141.38C963.311 1141.51 963.311 1141.64 963.311 1141.76C963.311 1141.89 963.311 1142.02 963.311 1142.15C963.311 1142.28 963.311 1142.41 963.311 1142.53C963.311 1142.66 963.311 1142.79 963.311 1142.91C963.311 1143.04 963.311 1143.17 963.311 1143.29C963.311 1143.42 963.311 1143.54 963.311 1143.67C963.311 1143.79 963.311 1143.91 963.311 1144.04C963.311 1144.16 963.311 1144.28 963.311 1144.4C963.311 1144.53 963.311 1144.65 963.311 1144.77C963.311 1144.89 963.311 1145.01 963.311 1145.13C963.311 1145.25 963.311 1145.37 963.311 1145.49C963.311 1145.61 963.311 1145.73 963.311 1145.85C963.311 1145.96 963.311 1146.08 963.311 1146.2C963.311 1146.31 963.311 1146.43 963.311 1146.55C963.311 1146.66 963.311 1146.78 963.311 1146.89C963.311 1147.01 963.311 1147.12 963.311 1147.24C963.311 1147.35 963.311 1147.46 963.311 1147.58C963.311 1147.69 963.311 1147.8 963.311 1147.91C963.311 1148.02 963.311 1148.14 963.311 1148.25C963.311 1148.36 963.311 1148.47 963.311 1148.58C963.311 1148.69 963.311 1148.79 963.311 1148.9C963.311 1149.01 963.311 1149.12 963.311 1149.23C963.311 1149.33 963.311 1149.44 963.311 1149.55C963.311 1149.65 963.311 1149.76 963.311 1149.86C963.311 1149.97 963.311 1150.07 963.311 1150.18C963.311 1150.28 963.311 1150.38 963.311 1150.49C963.311 1150.59 963.311 1150.69 963.311 1150.79C963.311 1150.89 963.311 1151 963.311 1151.1C963.311 1151.2 963.311 1151.3 963.311 1151.4C963.311 1151.49 963.311 1151.59 963.311 1151.69C963.311 1151.79 963.311 1151.89 963.311 1151.98C963.311 1152.08 963.311 1152.18 963.311 1152.27C963.311 1152.37 963.311 1152.46 963.311 1152.56C963.311 1152.65 963.311 1152.75 963.311 1152.84C963.311 1152.93 963.311 1153.03 963.311 1153.12C963.311 1153.21 963.311 1153.3 963.311 1153.39C963.311 1153.49 963.311 1153.58 963.311 1153.67C963.311 1153.76 963.311 1153.85 963.311 1153.93C963.311 1154.02 963.311 1154.11 963.311 1154.2C963.311 1154.29 963.311 1154.37 963.311 1154.46C963.311 1154.55 963.311 1154.63 963.311 1154.72C963.311 1154.8 963.311 1154.89 963.311 1154.97C963.311 1155.05 963.311 1155.14 963.311 1155.22C963.311 1155.3 963.311 1155.38 963.311 1155.46C963.311 1155.55 963.311 1155.63 963.311 1155.71C963.311 1155.79 963.311 1155.87 963.311 1155.94C963.311 1156.02 963.311 1156.1 963.311 1156.18C963.311 1156.26 963.311 1156.33 963.311 1156.41C963.311 1156.49 963.311 1156.56 963.311 1156.64C963.311 1156.71 963.311 1156.79 963.311 1156.86C963.311 1156.93 963.311 1157.01 963.311 1157.08C963.311 1157.15 963.311 1157.22 963.311 1157.29C963.311 1157.37 963.311 1157.44 963.311 1157.51C963.311 1157.58 963.311 1157.64 963.311 1157.71C963.311 1157.78 963.311 1157.85 963.311 1157.92C963.311 1157.98 963.311 1158.05 963.311 1158.12C963.311 1158.18 963.311 1158.25 963.311 1158.31C963.311 1158.38 963.311 1158.44 963.311 1158.5C963.311 1158.57 963.311 1158.63 963.311 1158.69C963.311 1158.75 963.311 1158.81 963.311 1158.88C963.311 1158.94 963.311 1159 963.311 1159.05C963.311 1159.11 963.311 1159.17 963.311 1159.23C963.311 1159.29 963.311 1159.35 963.311 1159.4C963.311 1159.46 963.311 1159.51 963.311 1159.57C963.311 1159.62 963.311 1159.68 963.311 1159.73C963.311 1159.79 963.311 1159.84 963.311 1159.89C963.311 1159.94 963.311 1160 963.311 1160.05C963.311 1160.1 963.311 1160.15 963.311 1160.2C963.311 1160.25 963.311 1160.3 963.311 1160.34C963.311 1160.39 963.311 1160.44 963.311 1160.49C963.311 1160.53 963.311 1160.58 963.311 1160.62C963.311 1160.67 963.311 1160.71 963.311 1160.76C963.311 1160.8 963.311 1160.84 963.311 1160.89C963.311 1160.93 963.311 1160.97 963.311 1161.01C963.311 1161.05 963.311 1161.09 963.311 1161.13C963.311 1161.17 963.311 1161.21 963.311 1161.25C963.311 1161.29 963.311 1161.33 963.311 1161.36C963.311 1161.4 963.311 1161.44 963.311 1161.47C963.311 1161.51 963.311 1161.54 963.311 1161.57C963.311 1161.61 963.311 1161.64 963.311 1161.67C963.311 1161.71 963.311 1161.74 963.311 1161.77C963.311 1161.8 963.311 1161.83 963.311 1161.86C963.311 1161.89 963.311 1161.92 963.311 1161.94C963.311 1161.97 963.311 1162 963.311 1162.03C963.311 1162.05 963.311 1162.08 963.311 1162.1C963.311 1162.13 963.311 1162.15 963.311 1162.18C963.311 1162.2 963.311 1162.22 963.311 1162.24C963.311 1162.26 963.311 1162.29 963.311 1162.31C963.311 1162.33 963.311 1162.35 963.311 1162.36C963.311 1162.38 963.311 1162.4 963.311 1162.42C963.311 1162.44 963.311 1162.45 963.311 1162.47C963.311 1162.48 963.311 1162.5 963.311 1162.51C963.311 1162.53 963.311 1162.54 963.311 1162.55C963.311 1162.57 963.311 1162.58 963.311 1162.59C963.311 1162.6 963.311 1162.61 963.311 1162.62C963.311 1162.63 963.311 1162.64 963.311 1162.65C963.311 1162.65 963.311 1162.66 963.311 1162.67C963.311 1162.67 963.311 1162.68 963.311 1162.68C963.311 1162.69 963.311 1162.69 963.311 1162.7C963.311 1162.7 963.311 1162.7 963.311 1162.7C963.311 1162.71 963.311 1162.71 964.311 1162.71C965.311 1162.71 965.311 1162.71 965.311 1162.7C965.311 1162.7 965.311 1162.7 965.311 1162.7C965.311 1162.69 965.311 1162.69 965.311 1162.68C965.311 1162.68 965.311 1162.67 965.311 1162.67C965.311 1162.66 965.311 1162.65 965.311 1162.65C965.311 1162.64 965.311 1162.63 965.311 1162.62C965.311 1162.61 965.311 1162.6 965.311 1162.59C965.311 1162.58 965.311 1162.57 965.311 1162.55C965.311 1162.54 965.311 1162.53 965.311 1162.51C965.311 1162.5 965.311 1162.48 965.311 1162.47C965.311 1162.45 965.311 1162.44 965.311 1162.42C965.311 1162.4 965.311 1162.38 965.311 1162.36C965.311 1162.35 965.311 1162.33 965.311 1162.31C965.311 1162.29 965.311 1162.26 965.311 1162.24C965.311 1162.22 965.311 1162.2 965.311 1162.18C965.311 1162.15 965.311 1162.13 965.311 1162.1C965.311 1162.08 965.311 1162.05 965.311 1162.03C965.311 1162 965.311 1161.97 965.311 1161.94C965.311 1161.92 965.311 1161.89 965.311 1161.86C965.311 1161.83 965.311 1161.8 965.311 1161.77C965.311 1161.74 965.311 1161.71 965.311 1161.67C965.311 1161.64 965.311 1161.61 965.311 1161.57C965.311 1161.54 965.311 1161.51 965.311 1161.47C965.311 1161.44 965.311 1161.4 965.311 1161.36C965.311 1161.33 965.311 1161.29 965.311 1161.25C965.311 1161.21 965.311 1161.17 965.311 1161.13C965.311 1161.09 965.311 1161.05 965.311 1161.01C965.311 1160.97 965.311 1160.93 965.311 1160.89C965.311 1160.84 965.311 1160.8 965.311 1160.76C965.311 1160.71 965.311 1160.67 965.311 1160.62C965.311 1160.58 965.311 1160.53 965.311 1160.49C965.311 1160.44 965.311 1160.39 965.311 1160.34C965.311 1160.3 965.311 1160.25 965.311 1160.2C965.311 1160.15 965.311 1160.1 965.311 1160.05C965.311 1160 965.311 1159.94 965.311 1159.89C965.311 1159.84 965.311 1159.79 965.311 1159.73C965.311 1159.68 965.311 1159.62 965.311 1159.57C965.311 1159.51 965.311 1159.46 965.311 1159.4C965.311 1159.35 965.311 1159.29 965.311 1159.23C965.311 1159.17 965.311 1159.11 965.311 1159.05C965.311 1159 965.311 1158.94 965.311 1158.88C965.311 1158.81 965.311 1158.75 965.311 1158.69C965.311 1158.63 965.311 1158.57 965.311 1158.5C965.311 1158.44 965.311 1158.38 965.311 1158.31C965.311 1158.25 965.311 1158.18 965.311 1158.12C965.311 1158.05 965.311 1157.98 965.311 1157.92C965.311 1157.85 965.311 1157.78 965.311 1157.71C965.311 1157.64 965.311 1157.58 965.311 1157.51C965.311 1157.44 965.311 1157.37 965.311 1157.29C965.311 1157.22 965.311 1157.15 965.311 1157.08C965.311 1157.01 965.311 1156.93 965.311 1156.86C965.311 1156.79 965.311 1156.71 965.311 1156.64C965.311 1156.56 965.311 1156.49 965.311 1156.41C965.311 1156.33 965.311 1156.26 965.311 1156.18C965.311 1156.1 965.311 1156.02 965.311 1155.94C965.311 1155.87 965.311 1155.79 965.311 1155.71C965.311 1155.63 965.311 1155.55 965.311 1155.46C965.311 1155.38 965.311 1155.3 965.311 1155.22C965.311 1155.14 965.311 1155.05 965.311 1154.97C965.311 1154.89 965.311 1154.8 965.311 1154.72C965.311 1154.63 965.311 1154.55 965.311 1154.46C965.311 1154.37 965.311 1154.29 965.311 1154.2C965.311 1154.11 965.311 1154.02 965.311 1153.93C965.311 1153.85 965.311 1153.76 965.311 1153.67C965.311 1153.58 965.311 1153.49 965.311 1153.39C965.311 1153.3 965.311 1153.21 965.311 1153.12C965.311 1153.03 965.311 1152.93 965.311 1152.84C965.311 1152.75 965.311 1152.65 965.311 1152.56C965.311 1152.46 965.311 1152.37 965.311 1152.27C965.311 1152.18 965.311 1152.08 965.311 1151.98C965.311 1151.89 965.311 1151.79 965.311 1151.69C965.311 1151.59 965.311 1151.49 965.311 1151.4C965.311 1151.3 965.311 1151.2 965.311 1151.1C965.311 1151 965.311 1150.89 965.311 1150.79C965.311 1150.69 965.311 1150.59 965.311 1150.49C965.311 1150.38 965.311 1150.28 965.311 1150.18C965.311 1150.07 965.311 1149.97 965.311 1149.86C965.311 1149.76 965.311 1149.65 965.311 1149.55C965.311 1149.44 965.311 1149.33 965.311 1149.23C965.311 1149.12 965.311 1149.01 965.311 1148.9C965.311 1148.79 965.311 1148.69 965.311 1148.58C965.311 1148.47 965.311 1148.36 965.311 1148.25C965.311 1148.14 965.311 1148.02 965.311 1147.91C965.311 1147.8 965.311 1147.69 965.311 1147.58C965.311 1147.46 965.311 1147.35 965.311 1147.24C965.311 1147.12 965.311 1147.01 965.311 1146.89C965.311 1146.78 965.311 1146.66 965.311 1146.55C965.311 1146.43 965.311 1146.31 965.311 1146.2C965.311 1146.08 965.311 1145.96 965.311 1145.85C965.311 1145.73 965.311 1145.61 965.311 1145.49C965.311 1145.37 965.311 1145.25 965.311 1145.13C965.311 1145.01 965.311 1144.89 965.311 1144.77C965.311 1144.65 965.311 1144.53 965.311 1144.4C965.311 1144.28 965.311 1144.16 965.311 1144.04C965.311 1143.91 965.311 1143.79 965.311 1143.67C965.311 1143.54 965.311 1143.42 965.311 1143.29C965.311 1143.17 965.311 1143.04 965.311 1142.91C965.311 1142.79 965.311 1142.66 965.311 1142.53C965.311 1142.41 965.311 1142.28 965.311 1142.15C965.311 1142.02 965.311 1141.89 965.311 1141.76C965.311 1141.64 965.311 1141.51 965.311 1141.38C965.311 1141.25 965.311 1141.12 965.311 1140.98C965.311 1140.85 965.311 1140.72 965.311 1140.59C965.311 1140.46 965.311 1140.32 965.311 1140.19C965.311 1140.06 965.311 1139.93 965.311 1139.79C965.311 1139.66 965.311 1139.52 965.311 1139.39C965.311 1139.25 965.311 1139.12 965.311 1138.98C965.311 1138.85 965.311 1138.71 965.311 1138.57C965.311 1138.44 965.311 1138.3 965.311 1138.16C965.311 1138.02 965.311 1137.89 965.311 1137.75C965.311 1137.61 965.311 1137.47 965.311 1137.33C965.311 1137.19 965.311 1137.05 965.311 1136.91C965.311 1136.77 965.311 1136.63 965.311 1136.49C965.311 1136.35 965.311 1136.2 965.311 1136.06C965.311 1135.92 965.311 1135.78 965.311 1135.63C965.311 1135.49 965.311 1135.35 965.311 1135.2C965.311 1135.06 965.311 1134.91 965.311 1134.77C965.311 1134.62 965.311 1134.48 965.311 1134.33C965.311 1134.19 965.311 1134.04 965.311 1133.89C965.311 1133.75 965.311 1133.6 965.311 1133.45C965.311 1133.31 965.311 1133.16 965.311 1133.01C965.311 1132.86 965.311 1132.71 965.311 1132.56C965.311 1132.41 965.311 1132.26 965.311 1132.11C965.311 1131.96 965.311 1131.81 965.311 1131.66C965.311 1131.51 965.311 1131.36 965.311 1131.21C965.311 1131.06 965.311 1130.91 965.311 1130.75C965.311 1130.6 965.311 1130.45 965.311 1130.3C965.311 1130.14 965.311 1129.99 965.311 1129.83C965.311 1129.68 965.311 1129.53 965.311 1129.37C965.311 1129.22 965.311 1129.06 965.311 1128.9C965.311 1128.75 965.311 1128.59 965.311 1128.44C965.311 1128.28 965.311 1128.12 965.311 1127.97C965.311 1127.81 965.311 1127.65 965.311 1127.49C965.311 1127.34 965.311 1127.18 965.311 1127.02C965.311 1126.86 965.311 1126.7 965.311 1126.54C965.311 1126.38 965.311 1126.22 965.311 1126.06C965.311 1125.9 965.311 1125.74 965.311 1125.58C965.311 1125.42 965.311 1125.26 965.311 1125.09C965.311 1124.93 965.311 1124.77 965.311 1124.61C965.311 1124.45 965.311 1124.28 965.311 1124.12C965.311 1123.96 965.311 1123.79 965.311 1123.63C965.311 1123.46 965.311 1123.3 965.311 1123.14C965.311 1122.97 965.311 1122.81 965.311 1122.64C965.311 1122.47 965.311 1122.31 965.311 1122.14C965.311 1121.98 965.311 1121.81 965.311 1121.64C965.311 1121.48 965.311 1121.31 965.311 1121.14C965.311 1120.97 965.311 1120.81 965.311 1120.64C965.311 1120.47 965.311 1120.3 965.311 1120.13C965.311 1119.96 965.311 1119.79 965.311 1119.62C965.311 1119.46 965.311 1119.29 965.311 1119.12C965.311 1118.94 965.311 1118.77 965.311 1118.6C965.311 1118.43 965.311 1118.26 965.311 1118.09C965.311 1117.92 965.311 1117.75 965.311 1117.57C965.311 1117.4 965.311 1117.23 965.311 1117.06C965.311 1116.88 965.311 1116.71 965.311 1116.54C965.311 1116.36 965.311 1116.19 965.311 1116.02C965.311 1115.84 965.311 1115.67 965.311 1115.49C965.311 1115.32 965.311 1115.14 965.311 1114.97C965.311 1114.79 965.311 1114.62 965.311 1114.44C965.311 1114.26 965.311 1114.09 965.311 1113.91C965.311 1113.74 965.311 1113.56 965.311 1113.38C965.311 1113.2 965.311 1113.03 965.311 1112.85C965.311 1112.67 965.311 1112.49 965.311 1112.31C965.311 1112.14 965.311 1111.96 965.311 1111.78C965.311 1111.6 965.311 1111.42 965.311 1111.24C965.311 1111.06 965.311 1110.88 965.311 1110.7C965.311 1110.52 965.311 1110.34 965.311 1110.16C965.311 1109.98 965.311 1109.8 965.311 1109.62C965.311 1109.44 965.311 1109.26 965.311 1109.07C965.311 1108.89 965.311 1108.71 965.311 1108.53C965.311 1108.35 965.311 1108.16 965.311 1107.98C965.311 1107.8 965.311 1107.61 965.311 1107.43C965.311 1107.25 965.311 1107.06 965.311 1106.88C965.311 1106.7 965.311 1106.51 965.311 1106.33C965.311 1106.14 965.311 1105.96 965.311 1105.77C965.311 1105.59 965.311 1105.4 965.311 1105.22C965.311 1105.03 965.311 1104.85 965.311 1104.66C965.311 1104.48 965.311 1104.29 965.311 1104.1C965.311 1103.92 965.311 1103.73 965.311 1103.54C965.311 1103.36 965.311 1103.17 965.311 1102.98C965.311 1102.79 965.311 1102.61 965.311 1102.42C965.311 1102.23 965.311 1102.04 965.311 1101.86C965.311 1101.67 965.311 1101.48 965.311 1101.29C965.311 1101.1 965.311 1100.91 965.311 1100.72C965.311 1100.53 965.311 1100.34 965.311 1100.15C965.311 1099.96 965.311 1099.77 965.311 1099.58C965.311 1099.39 965.311 1099.2 965.311 1099.01C965.311 1098.82 965.311 1098.63 965.311 1098.44C965.311 1098.25 965.311 1098.06 965.311 1097.87C965.311 1097.68 965.311 1097.49 965.311 1097.29C965.311 1097.1 965.311 1096.91 965.311 1096.72C965.311 1096.53 965.311 1096.33 965.311 1096.14C965.311 1095.95 965.311 1095.75 965.311 1095.56C965.311 1095.37 965.311 1095.18 965.311 1094.98C965.311 1094.79 965.311 1094.6 965.311 1094.4C965.311 1094.21 965.311 1094.01 965.311 1093.82C965.311 1093.63 965.311 1093.43 965.311 1093.24C965.311 1093.04 965.311 1092.85 965.311 1092.65C965.311 1092.46 965.311 1092.26 965.311 1092.07C965.311 1091.87 965.311 1091.68 965.311 1091.48C965.311 1091.28 965.311 1091.09 965.311 1090.89C965.311 1090.7 965.311 1090.5 965.311 1090.3C965.311 1090.11 965.311 1089.91 965.311 1089.72C965.311 1089.52 965.311 1089.32 965.311 1089.12C965.311 1088.93 965.311 1088.73 965.311 1088.53C965.311 1088.34 965.311 1088.14 965.311 1087.94C965.311 1087.74 965.311 1087.55 965.311 1087.35C965.311 1087.15 965.311 1086.95 965.311 1086.75C965.311 1086.56 965.311 1086.36 965.311 1086.16C965.311 1085.96 965.311 1085.76 965.311 1085.56C965.311 1085.36 965.311 1085.16 965.311 1084.97C965.311 1084.77 965.311 1084.57 965.311 1084.37C965.311 1084.17 965.311 1083.97 965.311 1083.77C965.311 1083.57 965.311 1083.37 965.311 1083.17C965.311 1082.97 965.311 1082.77 965.311 1082.57C965.311 1082.37 965.311 1082.17 965.311 1081.97C965.311 1081.77 965.311 1081.57 965.311 1081.37C965.311 1081.17 965.311 1080.97 965.311 1080.76C965.311 1080.56 965.311 1080.36 965.311 1080.16C965.311 1079.96 965.311 1079.76 965.311 1079.56C965.311 1079.36 965.311 1079.15 965.311 1078.95C965.311 1078.75 965.311 1078.55 965.311 1078.35C965.311 1078.15 965.311 1077.94 965.311 1077.74C965.311 1077.54 965.311 1077.34 965.311 1077.14C965.311 1076.93 965.311 1076.73 965.311 1076.53C965.311 1076.33 965.311 1076.12 965.311 1075.92C965.311 1075.72 965.311 1075.52 965.311 1075.31C965.311 1075.11 965.311 1074.91 965.311 1074.7C965.311 1074.5 965.311 1074.3 965.311 1074.1C965.311 1073.89 965.311 1073.69 965.311 1073.49C965.311 1073.28 965.311 1073.08 965.311 1072.88C965.311 1072.67 965.311 1072.47 965.311 1072.26C965.311 1072.06 965.311 1071.86 965.311 1071.65C965.311 1071.45 965.311 1071.25 965.311 1071.04C965.311 1070.84 965.311 1070.63 965.311 1070.43C965.311 1070.23 965.311 1070.02 965.311 1069.82C965.311 1069.61 965.311 1069.41 965.311 1069.2C965.311 1069 965.311 1068.8 965.311 1068.59C965.311 1068.39 965.311 1068.18 965.311 1067.98C965.311 1067.77 965.311 1067.57 965.311 1067.36C965.311 1067.16 965.311 1066.95 965.311 1066.75C965.311 1066.55 965.311 1066.34 965.311 1066.14C965.311 1065.93 965.311 1065.73 965.311 1065.52C965.311 1065.32 965.311 1065.11 965.311 1064.91C965.311 1064.7 965.311 1064.5 965.311 1064.29C965.311 1064.09 965.311 1063.88 965.311 1063.68C965.311 1063.47 965.311 1063.27 965.311 1063.06C965.311 1062.85 965.311 1062.65 965.311 1062.44C965.311 1062.24 965.311 1062.03 965.311 1061.83C965.311 1061.62 965.311 1061.42 965.311 1061.21C965.311 1061.01 965.311 1060.8 965.311 1060.6C965.311 1060.39 965.311 1060.19 965.311 1059.98C965.311 1059.77 965.311 1059.57 965.311 1059.36C965.311 1059.16 965.311 1058.95 965.311 1058.75C965.311 1058.54 965.311 1058.34 965.311 1058.13C965.311 1057.93 965.311 1057.72 965.311 1057.51C965.311 1057.31 965.311 1057.1 965.311 1056.9C965.311 1056.69 965.311 1056.49 965.311 1056.28C965.311 1056.08 965.311 1055.87 965.311 1055.67C965.311 1055.46 965.311 1055.26 965.311 1055.05C965.311 1054.84 965.311 1054.64 965.311 1054.43C965.311 1054.23 965.311 1054.02 965.311 1053.82C965.311 1053.61 965.311 1053.41 965.311 1053.2C965.311 1053 965.311 1052.79 965.311 1052.59C965.311 1052.38 965.311 1052.18 965.311 1051.97C965.311 1051.76 965.311 1051.56 965.311 1051.35C965.311 1051.15 965.311 1050.94 965.311 1050.74C965.311 1050.53 965.311 1050.33 965.311 1050.12C965.311 1049.92 965.311 1049.71 965.311 1049.51C965.311 1049.3 965.311 1049.1 965.311 1048.89C965.311 1048.69 965.311 1048.48 965.311 1048.28C965.311 1048.08 965.311 1047.87 965.311 1047.67C965.311 1047.46 965.311 1047.26 965.311 1047.05C965.311 1046.85 965.311 1046.64 965.311 1046.44C965.311 1046.23 965.311 1046.03 965.311 1045.83C965.311 1045.62 965.311 1045.42 965.311 1045.21C965.311 1045.01 965.311 1044.8 965.311 1044.6C965.311 1044.4 965.311 1044.19 965.311 1043.99C965.311 1043.78 965.311 1043.58 965.311 1043.38C965.311 1043.17 965.311 1042.97 965.311 1042.77C965.311 1042.56 965.311 1042.36 965.311 1042.15C965.311 1041.95 965.311 1041.75 965.311 1041.54C965.311 1041.34 965.311 1041.14 965.311 1040.93C965.311 1040.73 965.311 1040.53 965.311 1040.33C965.311 1040.12 965.311 1039.92 965.311 1039.72C965.311 1039.51 965.311 1039.31 965.311 1039.11C965.311 1038.91 965.311 1038.7 965.311 1038.5C965.311 1038.3 965.311 1038.1 965.311 1037.89C965.311 1037.69 965.311 1037.49 965.311 1037.29C965.311 1037.09 965.311 1036.88 965.311 1036.68C965.311 1036.48 965.311 1036.28 965.311 1036.08C965.311 1035.88 965.311 1035.67 965.311 1035.47C965.311 1035.27 965.311 1035.07 965.311 1034.87C965.311 1034.67 965.311 1034.47 965.311 1034.27C965.311 1034.06 965.311 1033.86 965.311 1033.66C965.311 1033.46 965.311 1033.26 965.311 1033.06C965.311 1032.86 965.311 1032.66 965.311 1032.46C965.311 1032.26 965.311 1032.06 965.311 1031.86C965.311 1031.66 965.311 1031.46 965.311 1031.26C965.311 1031.06 965.311 1030.86 965.311 1030.66C965.311 1030.46 965.311 1030.26 965.311 1030.06C965.311 1029.87 965.311 1029.67 965.311 1029.47C965.311 1029.27 965.311 1029.07 965.311 1028.87C965.311 1028.67 965.311 1028.47 965.311 1028.28C965.311 1028.08 965.311 1027.88 965.311 1027.68C965.311 1027.48 965.311 1027.29 965.311 1027.09C965.311 1026.89 965.311 1026.69 965.311 1026.5C965.311 1026.3 965.311 1026.1 965.311 1025.9C965.311 1025.71 965.311 1025.51 965.311 1025.31C965.311 1025.12 965.311 1024.92 965.311 1024.72C965.311 1024.53 965.311 1024.33 965.311 1024.14C965.311 1023.94 965.311 1023.74 965.311 1023.55C965.311 1023.35 965.311 1023.16 965.311 1022.96C965.311 1022.77 965.311 1022.57 965.311 1022.38C965.311 1022.18 965.311 1021.99 965.311 1021.79C965.311 1021.6 965.311 1021.4 965.311 1021.21C965.311 1021.02 965.311 1020.82 965.311 1020.63C965.311 1020.43 965.311 1020.24 965.311 1020.05C965.311 1019.85 965.311 1019.66 965.311 1019.47C965.311 1019.27 965.311 1019.08 965.311 1018.89C965.311 1018.7 965.311 1018.5 965.311 1018.31C965.311 1018.12 965.311 1017.93 965.311 1017.74C965.311 1017.54 965.311 1017.35 965.311 1017.16C965.311 1016.97 965.311 1016.78 965.311 1016.59C965.311 1016.4 965.311 1016.21 965.311 1016.02C965.311 1015.83 965.311 1015.63 965.311 1015.44C965.311 1015.25 965.311 1015.06 965.311 1014.88C965.311 1014.69 965.311 1014.5 965.311 1014.31C965.311 1014.12 965.311 1013.93 965.311 1013.74C965.311 1013.55 965.311 1013.36 965.311 1013.17C965.311 1012.99 965.311 1012.8 965.311 1012.61C965.311 1012.42 965.311 1012.23 965.311 1012.05C965.311 1011.86 965.311 1011.67 965.311 1011.49C965.311 1011.3 965.311 1011.11 965.311 1010.93C965.311 1010.74 965.311 1010.55 965.311 1010.37C965.311 1010.18 965.311 1010 965.311 1009.81C965.311 1009.63 965.311 1009.44 965.311 1009.26C965.311 1009.07 965.311 1008.89 965.311 1008.7C965.311 1008.52 965.311 1008.33 965.311 1008.15C965.311 1007.97 965.311 1007.78 965.311 1007.6C965.311 1007.41 965.311 1007.23 965.311 1007.05C965.311 1006.87 965.311 1006.68 965.311 1006.5C965.311 1006.32 965.311 1006.14 965.311 1005.96C965.311 1005.77 965.311 1005.59 965.311 1005.41C965.311 1005.23 965.311 1005.05 965.311 1004.87C965.311 1004.69 965.311 1004.51 965.311 1004.33C965.311 1004.15 965.311 1003.97 965.311 1003.79C965.311 1003.61 965.311 1003.43 965.311 1003.25C965.311 1003.07 965.311 1002.89 965.311 1002.71C965.311 1002.54 965.311 1002.36 965.311 1002.18C965.311 1002 965.311 1001.83 965.311 1001.65C965.311 1001.47 965.311 1001.29 965.311 1001.12C965.311 1000.94 965.311 1000.76 965.311 1000.59C965.311 1000.41 965.311 1000.24 965.311 1000.06C965.311 999.886 965.311 999.711 965.311 999.536C965.311 999.362 965.311 999.187 965.311 999.013C965.311 998.839 965.311 998.665 965.311 998.492C965.311 998.318 965.311 998.145 965.311 997.972C965.311 997.799 965.311 997.627 965.311 997.455C965.311 997.282 965.311 997.111 965.311 996.939C965.311 996.768 965.311 996.596 965.311 996.425C965.311 996.254 965.311 996.084 965.311 995.914C965.311 995.743 965.311 995.574 965.311 995.404C965.311 995.234 965.311 995.065 965.311 994.896C965.311 994.727 965.311 994.559 965.311 994.391C965.311 994.222 965.311 994.055 965.311 993.887C965.311 993.72 965.311 993.552 965.311 993.385C965.311 993.219 965.311 993.052 965.311 992.886C965.311 992.72 965.311 992.554 965.311 992.389C965.311 992.223 965.311 992.058 965.311 991.893C965.311 991.729 965.311 991.564 965.311 991.4C965.311 991.236 965.311 991.073 965.311 990.909C965.311 990.746 965.311 990.583 965.311 990.421C965.311 990.258 965.311 990.096 965.311 989.934C965.311 989.772 965.311 989.611 965.311 989.45C965.311 989.289 965.311 989.128 965.311 988.968C965.311 988.808 965.311 988.648 965.311 988.488C965.311 988.328 965.311 988.169 965.311 988.01C965.311 987.852 965.311 987.693 965.311 987.535C965.311 987.377 965.311 987.22 965.311 987.062C965.311 986.905 965.311 986.748 965.311 986.592C965.311 986.435 965.311 986.279 965.311 986.123C965.311 985.968 965.311 985.812 965.311 985.658C965.311 985.503 965.311 985.348 965.311 985.194C965.311 985.04 965.311 984.886 965.311 984.733C965.311 984.58 965.311 984.427 965.311 984.274C965.311 984.122 965.311 983.97 965.311 983.818C965.311 983.666 965.311 983.515 965.311 983.364C965.311 983.214 965.311 983.063 965.311 982.913C965.311 982.763 965.311 982.613 965.311 982.464C965.311 982.315 965.311 982.166 965.311 982.018C965.311 981.87 965.311 981.722 965.311 981.574C965.311 981.427 965.311 981.28 965.311 981.133C965.311 980.987 965.311 980.84 965.311 980.695C965.311 980.549 965.311 980.404 965.311 980.259C965.311 980.114 965.311 979.969 965.311 979.825C965.311 979.681 965.311 979.538 965.311 979.395C965.311 979.251 965.311 979.109 965.311 978.966C965.311 978.824 965.311 978.682 965.311 978.541C965.311 978.4 965.311 978.259 965.311 978.118C965.311 977.978 965.311 977.838 965.311 977.698C965.311 977.559 965.311 977.42 965.311 977.281C965.311 977.142 965.311 977.004 965.311 976.867C965.311 976.729 965.311 976.592 965.311 976.455C965.311 976.318 965.311 976.182 965.311 976.046C965.311 975.91 965.311 975.775 965.311 975.64C965.311 975.505 965.311 975.37 965.311 975.236C965.311 975.102 965.311 974.969 965.311 974.836C965.311 974.703 965.311 974.57 965.311 974.438C965.311 974.306 965.311 974.174 965.311 974.043C965.311 973.912 965.311 973.782 965.311 973.651C965.311 973.521 965.311 973.392 965.311 973.262C965.311 973.133 965.311 973.005 965.311 972.876C965.311 972.748 965.311 972.62 965.311 972.493C965.311 972.366 965.311 972.239 965.311 972.113C965.311 971.987 965.311 971.861 965.311 971.736C965.311 971.611 965.311 971.486 965.311 971.362C965.311 971.238 965.311 971.114 965.311 970.991C965.311 970.868 965.311 970.745 965.311 970.623C965.311 970.501 965.311 970.379 965.311 970.258C965.311 970.137 965.311 970.016 965.311 969.896C965.311 969.776 965.311 969.656 965.311 969.537C965.311 969.418 965.311 969.3 965.311 969.181C965.311 969.063 965.311 968.946 965.311 968.829C965.311 968.712 965.311 968.596 965.311 968.48C965.311 968.364 965.311 968.248 965.311 968.133C965.311 968.019 965.311 967.904 965.311 967.79C965.311 967.677 965.311 967.563 965.311 967.451C965.311 967.338 965.311 967.226 965.311 967.114C965.311 967.002 965.311 966.891 965.311 966.781C965.311 966.67 965.311 966.56 965.311 966.451C965.311 966.341 965.311 966.232 965.311 966.124C965.311 966.016 965.311 965.908 965.311 965.801C965.311 965.693 965.311 965.587 965.311 965.481C965.311 965.374 965.311 965.269 965.311 965.164C965.311 965.059 965.311 964.954 965.311 964.851C965.311 964.747 965.311 964.643 965.311 964.541C965.311 964.438 965.311 964.336 965.311 964.234C965.311 964.132 965.311 964.031 965.311 963.931C965.311 963.83 965.311 963.73 965.311 963.631C965.311 963.532 965.311 963.433 965.311 963.335C965.311 963.237 965.311 963.139 965.311 963.042C965.311 962.945 965.311 962.849 965.311 962.753C965.311 962.657 965.311 962.562 965.311 962.467C965.311 962.372 965.311 962.278 965.311 962.185C965.311 962.091 965.311 961.998 965.311 961.906C965.311 961.814 965.311 961.722 965.311 961.631C965.311 961.54 965.311 961.449 965.311 961.36C965.311 961.27 965.311 961.18 965.311 961.092C965.311 961.003 965.311 960.915 965.311 960.827C965.311 960.74 965.311 960.653 965.311 960.567C965.311 960.481 965.311 960.395 965.311 960.31C965.311 960.225 965.311 960.14 965.311 960.057C965.311 959.973 965.311 959.89 965.311 959.807C965.311 959.725 965.311 959.643 965.311 959.561C965.311 959.48 965.311 959.399 965.311 959.319C965.311 959.239 965.311 959.16 965.311 959.081C965.311 959.002 965.311 958.924 965.311 958.846C965.311 958.769 965.311 958.692 965.311 958.616C965.311 958.539 965.311 958.464 965.311 958.389C965.311 958.314 965.311 958.239 965.311 958.166C965.311 958.092 965.311 958.019 965.311 957.946C965.311 957.874 965.311 957.802 965.311 957.731C965.311 957.66 965.311 957.589 965.311 957.52C965.311 957.45 965.311 957.381 965.311 957.312C965.311 957.243 965.311 957.176 965.311 957.108C965.311 957.041 965.311 956.975 965.311 956.909C965.311 956.843 965.311 956.778 965.311 956.713C965.311 956.648 965.311 956.585 965.311 956.521C965.311 956.458 965.311 956.396 965.311 956.334C965.311 956.272 965.311 956.21 965.311 956.15C965.311 956.089 965.311 956.029 965.311 955.97C965.311 955.911 965.311 955.853 965.311 955.795C965.311 955.737 965.311 955.68 965.311 955.623C965.311 955.567 965.311 955.511 965.311 955.456C965.311 955.401 965.311 955.346 965.311 955.293C965.311 955.239 965.311 955.186 965.311 955.133C965.311 955.081 965.311 955.029 965.311 954.978C965.311 954.927 965.311 954.877 965.311 954.828C965.311 954.778 965.311 954.729 965.311 954.681C965.311 954.633 965.311 954.585 965.311 954.539C965.311 954.492 965.311 954.446 965.311 954.4C965.311 954.355 965.311 954.31 965.311 954.267C965.311 954.223 965.311 954.179 965.311 954.137C965.311 954.094 965.311 954.053 965.311 954.012C965.311 953.971 965.311 953.93 965.311 953.891C965.311 953.851 965.311 953.812 965.311 953.774C965.311 953.736 965.311 953.698 965.311 953.661C965.311 953.625 965.311 953.589 965.311 953.553C965.311 953.518 965.311 953.484 965.311 953.45C965.311 953.416 965.311 953.383 965.311 953.351C965.311 953.318 965.311 953.287 965.311 953.256C965.311 953.225 965.311 953.195 965.311 953.165C965.311 953.136 965.311 953.107 965.311 953.079C965.311 953.052 965.311 953.024 965.311 952.998C965.311 952.972 965.311 952.946 965.311 952.921C965.311 952.896 965.311 952.872 965.311 952.849C965.311 952.825 965.311 952.803 965.311 952.781C965.311 952.759 965.311 952.738 965.311 952.717C965.311 952.697 965.311 952.677 965.311 952.659C965.311 952.64 965.311 952.622 965.311 952.604C965.311 952.587 965.311 952.571 965.311 952.555C965.311 952.539 965.311 952.524 965.311 952.51C965.311 952.496 965.311 952.482 965.311 952.47C965.311 952.457 965.311 952.445 965.311 952.434C965.311 952.423 965.311 952.413 965.311 952.403C965.311 952.394 965.311 952.385 965.311 952.377C965.311 952.369 965.311 952.362 965.311 952.355C965.311 952.349 965.311 952.343 965.311 952.338C965.311 952.334 965.311 952.33 965.311 952.326C965.311 952.323 965.311 952.321 965.311 952.319C965.311 952.318 965.311 952.317 965.311 952.317H964.311ZM781.709 702.224L780.72 702.072L725.579 1059.52L726.567 1059.67L727.555 1059.83L782.697 702.377L781.709 702.224ZM726.567 1059.67L727.5 1060.03L803.918 861.282L802.985 860.923L802.052 860.564L725.634 1059.32L726.567 1059.67ZM802.985 860.923L803.226 861.894L1063.71 797.252L1063.47 796.282L1063.23 795.311L802.744 859.952L802.985 860.923ZM1063.47 796.282L1064.16 795.556L965.018 701.508L964.33 702.234L963.642 702.959L1062.78 797.007L1063.47 796.282ZM964.33 702.234L964.33 701.234L781.709 701.224L781.709 702.224L781.709 703.224L964.33 703.234L964.33 702.234ZM276.661 623.101L275.662 623.105L276.351 796.229L277.351 796.225L278.351 796.221L277.661 623.097L276.661 623.101ZM277.351 796.225L277.11 797.195L537.604 861.837L537.845 860.866L538.086 859.896L277.592 795.254L277.351 796.225ZM537.845 860.866L536.911 861.225L613.33 1059.97L614.263 1059.61L615.196 1059.25L538.778 860.508L537.845 860.866ZM614.263 1059.61L613.519 1058.94L574.233 1102.71L574.977 1103.37L575.722 1104.04L615.007 1060.28L614.263 1059.61ZM574.977 1103.37L575.583 1102.58L377.106 951.342L376.5 952.137L375.894 952.933L574.371 1104.17L574.977 1103.37ZM376.5 952.137V951.137H0V952.137V953.137H376.5V952.137ZM0 952.137H-1V952.203H0H1V952.137H0ZM1064.15 623.101L1063.15 623.097L1062.46 796.221L1063.46 796.225L1064.46 796.229L1065.15 623.105L1064.15 623.101ZM1063.46 796.225L1063.22 795.254L802.744 859.896L802.985 860.866L803.226 861.837L1063.7 797.195L1063.46 796.225ZM802.985 860.866L802.052 860.508L725.624 1059.25L726.558 1059.61L727.491 1059.97L803.918 861.225L802.985 860.866ZM726.558 1059.61L725.813 1060.28L765.089 1104.04L765.834 1103.37L766.578 1102.71L727.302 1058.94L726.558 1059.61ZM765.834 1103.37L766.44 1104.17L964.927 952.933L964.321 952.137L963.715 951.342L765.228 1102.58L765.834 1103.37ZM964.321 952.137V953.137H1340.82V952.137V951.137H964.321V952.137ZM1340.82 952.137H1339.82V952.203H1340.82H1341.82V952.137H1340.82ZM538.903 269.58L537.907 269.484L520.049 454.624L521.045 454.72L522.04 454.816L539.898 269.676L538.903 269.58ZM521.045 454.72L520.056 454.872L613.284 1059.56L614.272 1059.41L615.261 1059.26L522.033 454.567L521.045 454.72ZM614.272 1059.41V1060.41H726.567V1059.41V1058.41H614.272V1059.41ZM726.567 1059.41L727.555 1059.56L820.84 454.872L819.852 454.72L818.863 454.567L725.579 1059.26L726.567 1059.41ZM819.852 454.72L820.847 454.623L802.904 269.484L801.909 269.58L800.913 269.677L818.856 454.816L819.852 454.72ZM276.661 623.101L277.229 623.925L521.536 455.742L520.969 454.918L520.402 454.094L276.094 622.278L276.661 623.101ZM520.969 454.918L521.693 454.229L88.5408 -0.689569L87.8166 0L87.0924 0.689569L520.245 455.608L520.969 454.918ZM504.537 774.016V773.016H418.987V774.016V775.016H504.537V774.016ZM418.987 774.016L418.287 773.302L371.711 818.976L372.411 819.69L373.111 820.404L419.687 774.73L418.987 774.016ZM372.411 819.69L372.17 820.66L537.661 861.695L537.902 860.725L538.142 859.754L372.651 818.719L372.411 819.69ZM537.902 860.725L538.835 860.366L505.47 773.591L504.537 773.95L503.604 774.309L536.968 861.083L537.902 860.725ZM504.537 773.95H503.537V774.016H504.537H505.537V773.95H504.537ZM1064.15 623.101L1064.72 622.278L820.419 454.094L819.852 454.918L819.284 455.742L1063.58 623.925L1064.15 623.101ZM819.852 454.918L820.576 455.608L1253.73 0.689569L1253 0L1252.28 -0.689569L819.127 454.229L819.852 454.918ZM836.406 774.016V775.016H922.079V774.016V773.016H836.406V774.016ZM922.079 774.016L921.379 774.73L967.955 820.46L968.655 819.746L969.356 819.033L922.78 773.303L922.079 774.016ZM968.655 819.746L968.414 818.776L802.735 859.896L802.976 860.866L803.217 861.837L968.896 820.717L968.655 819.746ZM802.976 860.866L803.909 861.225L837.34 774.309L836.406 773.95L835.473 773.591L802.042 860.507L802.976 860.866ZM836.406 773.95H835.406V774.016H836.406H837.406V773.95H836.406ZM746.323 1174.99L747.288 1175.25L766.808 1103.77L765.843 1103.51L764.879 1103.24L745.358 1174.72L746.323 1174.99ZM765.843 1103.51L766.587 1102.84L727.302 1059.07L726.558 1059.74L725.813 1060.41L765.099 1104.17L765.843 1103.51ZM726.558 1059.74V1058.74H614.178V1059.74V1060.74H726.558V1059.74ZM614.178 1059.74L613.434 1059.07L574.158 1102.84L574.902 1103.51L575.646 1104.17L614.922 1060.41L614.178 1059.74ZM574.902 1103.51L573.937 1103.77L593.448 1175.25L594.412 1174.99L595.377 1174.72L575.867 1103.24L574.902 1103.51ZM746.323 1174.98H745.323V1293.01H746.323H747.323V1174.98H746.323ZM746.323 1293.01V1292.01H594.431V1293.01V1294.01H746.323V1293.01ZM594.431 1293.01H595.431V1174.98H594.431H593.431V1293.01H594.431ZM594.431 1174.98V1175.98H746.323V1174.98V1173.98H594.431V1174.98ZM376.566 1162.58L376.053 1163.44L594.041 1293.8L594.554 1292.94L595.067 1292.08L377.079 1161.73L376.566 1162.58ZM594.554 1292.94H595.554V1174.91H594.554H593.554V1292.94H594.554ZM594.554 1174.91L595.519 1174.65L575.999 1103.18L575.034 1103.44L574.069 1103.7L593.589 1175.17L594.554 1174.91ZM575.034 1103.44L574.748 1102.48L376.28 1161.63L376.566 1162.58L376.852 1163.54L575.32 1104.4L575.034 1103.44ZM964.321 1162.58L963.807 1161.73L745.81 1292.08L746.323 1292.94L746.836 1293.8L964.834 1163.44L964.321 1162.58ZM746.323 1292.94H747.323V1174.91H746.323H745.323V1292.94H746.323ZM746.323 1174.91L747.288 1175.17L766.808 1103.7L765.843 1103.44L764.879 1103.18L745.359 1174.65L746.323 1174.91ZM765.843 1103.44L765.558 1104.4L964.035 1163.54L964.321 1162.58L964.606 1161.63L766.129 1102.48L765.843 1103.44Z" fill="white" mask="url(#path-1-inside-1_771_134)"/>
<defs>
<linearGradient id="paint0_linear_771_134" x1="670.41" y1="0" x2="670.41" y2="1293.01" gradientUnits="userSpaceOnUse">
<stop stop-color="#0066FF"/>
<stop offset="1" stop-color="#EA8CFF"/>
</linearGradient>
<linearGradient id="paint1_linear_771_134" x1="670.41" y1="0" x2="670.41" y2="1293.01" gradientUnits="userSpaceOnUse">
<stop stop-color="#0066FF"/>
<stop offset="1" stop-color="#EA8CFF"/>
</linearGradient>
<linearGradient id="paint2_linear_771_134" x1="670.41" y1="0" x2="670.41" y2="1293.01" gradientUnits="userSpaceOnUse">
<stop stop-color="#0066FF"/>
<stop offset="1" stop-color="#EA8CFF"/>
</linearGradient>
<linearGradient id="paint3_linear_771_134" x1="670.41" y1="0" x2="670.41" y2="1293.01" gradientUnits="userSpaceOnUse">
<stop stop-color="#0066FF"/>
<stop offset="1" stop-color="#EA8CFF"/>
</linearGradient>
</defs>
</svg>
