<svg width="8076" height="5001" viewBox="0 0 8076 5001" fill="none" xmlns="http://www.w3.org/2000/svg">
<rect width="8076" height="5001" rx="74" fill="#101010"/>
<rect x="128" y="114" width="790" height="4773" rx="61" fill="#181818"/>
<rect x="0.433013" y="0.75" width="237.058" height="237.058" transform="matrix(0.866025 0.5 0 1 317.058 436.814)" fill="url(#paint0_linear_262_43)" stroke="white"/>
<rect x="0.433013" y="0.25" width="237.058" height="237.058" transform="matrix(0.866025 -0.5 0 1 523.234 556.261)" fill="url(#paint1_linear_262_43)" stroke="white"/>
<rect x="0.866025" width="237.058" height="237.058" transform="matrix(0.866025 -0.5 0.866025 0.5 317.116 437.463)" fill="url(#paint2_linear_262_43)" stroke="white"/>
<g clip-path="url(#clip0_262_43)">
<rect x="963" y="114" width="6984" height="4773" rx="61" fill="#181818"/>
<rect x="1130" y="246" width="4207" height="2104" rx="198" fill="#141414" stroke="#898989" stroke-width="4"/>
<rect x="5460" y="246" width="2407" height="2104" rx="198" fill="#141414" stroke="#898989" stroke-width="4"/>
<rect x="1130" y="2900" width="2195" height="1524" rx="198" fill="#141414" stroke="#898989" stroke-width="4"/>
<rect x="1132" y="4488" width="2195" height="1524" rx="198" fill="#141414" stroke="#898989" stroke-width="4"/>
<rect x="3403" y="4488" width="2195" height="1524" rx="198" fill="#141414" stroke="#898989" stroke-width="4"/>
<rect x="5674" y="4488" width="2195" height="1524" rx="198" fill="#141414" stroke="#898989" stroke-width="4"/>
<rect x="3401" y="2900" width="2195" height="1524" rx="198" fill="#141414" stroke="#898989" stroke-width="4"/>
<rect x="5672" y="2900" width="2195" height="1524" rx="198" fill="#141414" stroke="#898989" stroke-width="4"/>
</g>
<defs>
<linearGradient id="paint0_linear_262_43" x1="119.029" y1="0" x2="119.029" y2="238.058" gradientUnits="userSpaceOnUse">
<stop stop-color="#0066FF"/>
<stop offset="1" stop-color="#EA8CFF"/>
</linearGradient>
<linearGradient id="paint1_linear_262_43" x1="119.029" y1="0" x2="119.029" y2="238.058" gradientUnits="userSpaceOnUse">
<stop stop-color="#0066FF"/>
<stop offset="1" stop-color="#EA8CFF"/>
</linearGradient>
<linearGradient id="paint2_linear_262_43" x1="119.029" y1="0" x2="119.029" y2="238.058" gradientUnits="userSpaceOnUse">
<stop stop-color="#0066FF"/>
<stop offset="1" stop-color="#EA8CFF"/>
</linearGradient>
<clipPath id="clip0_262_43">
<rect x="963" y="114" width="6984" height="4773" rx="61" fill="white"/>
</clipPath>
</defs>
</svg>
